<svg width="231" height="170" viewBox="0 0 231 170" fill="none" xmlns="http://www.w3.org/2000/svg">
<rect width="231" height="170" rx="20" fill="white"/>
<path d="M67.0994 83C69.9801 83 71.6467 81.2134 71.6467 78.2589C71.6467 75.3182 69.9801 73.5455 67.1964 73.5455H64.0387V83H67.0994ZM65.4652 81.7536V74.7919H67.1087C69.1768 74.7919 70.2433 76.0291 70.2433 78.2589C70.2433 80.4979 69.1768 81.7536 67.021 81.7536H65.4652ZM76.3659 83.1431C77.9124 83.1431 79.0065 82.3814 79.3204 81.2273L78.0139 80.9918C77.7646 81.6612 77.1645 82.0028 76.3797 82.0028C75.1979 82.0028 74.4039 81.2365 74.3669 79.87H79.4081V79.3807C79.4081 76.8185 77.8754 75.8168 76.2689 75.8168C74.2931 75.8168 72.9912 77.3217 72.9912 79.5007C72.9912 81.7028 74.2746 83.1431 76.3659 83.1431ZM74.3715 78.8359C74.4269 77.8295 75.1563 76.957 76.2781 76.957C77.3492 76.957 78.0509 77.7511 78.0555 78.8359H74.3715ZM80.9396 85.6591H82.32V81.8967H82.4031C82.6523 82.3491 83.1602 83.1385 84.4528 83.1385C86.1701 83.1385 87.4165 81.7628 87.4165 79.4684C87.4165 77.1694 86.1516 75.8168 84.4389 75.8168C83.1232 75.8168 82.6477 76.62 82.4031 77.0586H82.2876V75.9091H80.9396V85.6591ZM82.2923 79.4545C82.2923 77.9727 82.9386 76.9893 84.1435 76.9893C85.3945 76.9893 86.0224 78.0465 86.0224 79.4545C86.0224 80.8764 85.3761 81.9613 84.1435 81.9613C82.957 81.9613 82.2923 80.9457 82.2923 79.4545ZM91.9499 83.1431C93.9489 83.1431 95.2553 81.6797 95.2553 79.4869C95.2553 77.2802 93.9489 75.8168 91.9499 75.8168C89.951 75.8168 88.6445 77.2802 88.6445 79.4869C88.6445 81.6797 89.951 83.1431 91.9499 83.1431ZM91.9545 81.9844C90.6481 81.9844 90.0387 80.8441 90.0387 79.4822C90.0387 78.125 90.6481 76.9709 91.9545 76.9709C93.2518 76.9709 93.8612 78.125 93.8612 79.4822C93.8612 80.8441 93.2518 81.9844 91.9545 81.9844ZM102.11 77.6403C101.823 76.5369 100.96 75.8168 99.4275 75.8168C97.8256 75.8168 96.6899 76.6616 96.6899 77.9173C96.6899 78.9237 97.2993 79.593 98.6288 79.8885L99.8291 80.1516C100.512 80.304 100.831 80.6087 100.831 81.0518C100.831 81.6012 100.245 82.0305 99.3398 82.0305C98.5134 82.0305 97.9825 81.6751 97.8163 80.978L96.4822 81.1811C96.713 82.4368 97.7563 83.1431 99.349 83.1431C101.062 83.1431 102.248 82.2337 102.248 80.9503C102.248 79.9485 101.611 79.3299 100.309 79.0298L99.1828 78.7713C98.4026 78.5866 98.0656 78.3235 98.0702 77.8434C98.0656 77.2987 98.6565 76.9109 99.4413 76.9109C100.3 76.9109 100.697 77.3864 100.859 77.8619L102.11 77.6403ZM103.766 83H105.146V75.9091H103.766V83ZM104.463 74.815C104.938 74.815 105.335 74.4457 105.335 73.9933C105.335 73.5408 104.938 73.1669 104.463 73.1669C103.983 73.1669 103.59 73.5408 103.59 73.9933C103.59 74.4457 103.983 74.815 104.463 74.815ZM110.313 75.9091H108.859V74.2102H107.479V75.9091H106.44V77.017H107.479V81.2042C107.474 82.4922 108.457 83.1154 109.547 83.0923C109.985 83.0877 110.281 83.0046 110.442 82.9446L110.193 81.8043C110.101 81.8228 109.93 81.8643 109.708 81.8643C109.261 81.8643 108.859 81.7166 108.859 80.918V77.017H110.313V75.9091ZM115.391 83H116.818V79.6761H118.757C120.949 79.6761 122.034 78.3512 122.034 76.6062C122.034 74.8658 120.959 73.5455 118.761 73.5455H115.391V83ZM116.818 78.4666V74.7688H118.609C120.022 74.7688 120.599 75.5352 120.599 76.6062C120.599 77.6772 120.022 78.4666 118.627 78.4666H116.818ZM125.596 83.157C126.769 83.157 127.429 82.5614 127.692 82.0305H127.747V83H129.095V78.2912C129.095 76.2276 127.47 75.8168 126.344 75.8168C125.06 75.8168 123.879 76.3338 123.417 77.6264L124.714 77.9219C124.917 77.4187 125.434 76.9339 126.362 76.9339C127.253 76.9339 127.71 77.4002 127.71 78.2035V78.2358C127.71 78.739 127.193 78.7298 125.919 78.8775C124.576 79.0344 123.2 79.3853 123.2 80.9964C123.2 82.3906 124.248 83.157 125.596 83.157ZM125.896 82.049C125.116 82.049 124.553 81.6982 124.553 81.0149C124.553 80.2763 125.208 80.0131 126.007 79.907C126.455 79.8469 127.516 79.7269 127.715 79.5284V80.4425C127.715 81.2827 127.046 82.049 125.896 82.049ZM131.552 85.6591C132.693 85.6591 133.413 85.0636 133.824 83.9464L136.755 75.9229L135.264 75.9091L133.468 81.4119H133.394L131.599 75.9091H130.121L132.716 83.0923L132.545 83.5632C132.194 84.505 131.7 84.5835 130.943 84.3757L130.611 85.5067C130.777 85.5806 131.137 85.6591 131.552 85.6591ZM138.056 85.6591H139.436V81.8967H139.519C139.769 82.3491 140.276 83.1385 141.569 83.1385C143.286 83.1385 144.533 81.7628 144.533 79.4684C144.533 77.1694 143.268 75.8168 141.555 75.8168C140.239 75.8168 139.764 76.62 139.519 77.0586H139.404V75.9091H138.056V85.6591ZM139.408 79.4545C139.408 77.9727 140.055 76.9893 141.26 76.9893C142.511 76.9893 143.139 78.0465 143.139 79.4545C143.139 80.8764 142.492 81.9613 141.26 81.9613C140.073 81.9613 139.408 80.9457 139.408 79.4545ZM148.143 83.157C149.315 83.157 149.976 82.5614 150.239 82.0305H150.294V83H151.642V78.2912C151.642 76.2276 150.017 75.8168 148.891 75.8168C147.607 75.8168 146.426 76.3338 145.964 77.6264L147.261 77.9219C147.464 77.4187 147.981 76.9339 148.909 76.9339C149.8 76.9339 150.257 77.4002 150.257 78.2035V78.2358C150.257 78.739 149.74 78.7298 148.466 78.8775C147.123 79.0344 145.747 79.3853 145.747 80.9964C145.747 82.3906 146.795 83.157 148.143 83.157ZM148.443 82.049C147.663 82.049 147.1 81.6982 147.1 81.0149C147.1 80.2763 147.755 80.0131 148.554 79.907C149.002 79.8469 150.063 79.7269 150.262 79.5284V80.4425C150.262 81.2827 149.592 82.049 148.443 82.049ZM154.861 73.5455H153.481V83H154.861V73.5455Z" fill="#232323"/>
<path d="M63.9034 101H69.4091V100.062H65.3523V99.9943L67.3125 97.8977C68.8125 96.2912 69.2557 95.5412 69.2557 94.5739C69.2557 93.2273 68.1648 92.1534 66.6307 92.1534C65.1009 92.1534 63.9375 93.1932 63.9375 94.7273H64.9432C64.9432 93.7344 65.5866 93.0739 66.5966 93.0739C67.5426 93.0739 68.267 93.6534 68.267 94.5739C68.267 95.3793 67.794 95.9759 66.7841 97.0795L63.9034 100.233V101ZM73.8963 101.119C75.5582 101.119 76.777 99.892 76.777 98.2216C76.777 96.5298 75.6009 95.2898 73.9986 95.2898C73.4105 95.2898 72.8395 95.4986 72.4815 95.7841H72.4304L72.7372 93.2102H76.3849V92.2727H71.8509L71.3224 96.5682L72.3111 96.6875C72.6733 96.4276 73.2912 96.2401 73.8281 96.2443C74.9403 96.2528 75.7543 97.0966 75.7543 98.2386C75.7543 99.3594 74.9702 100.182 73.8963 100.182C73.0014 100.182 72.2898 99.6065 72.2088 98.8182H71.1861C71.25 100.148 72.3963 101.119 73.8963 101.119ZM85.3391 92.2727V98.5114C85.3391 99.598 84.8192 100.182 83.9073 100.182C83.0763 100.182 82.4755 99.696 82.4755 98.9545H81.4357C81.4357 100.297 82.4755 101.119 83.9073 101.119C85.4244 101.119 86.396 100.186 86.396 98.5114V92.2727H85.3391ZM90.3036 101.153C91.4457 101.153 92.0423 100.54 92.2468 100.114H92.2979V101H93.3036V96.6875C93.3036 94.608 91.7184 94.3693 90.8832 94.3693C89.8945 94.3693 88.7695 94.7102 88.2582 95.9034L89.2127 96.2443C89.4343 95.767 89.9585 95.2557 90.9173 95.2557C91.842 95.2557 92.2979 95.7457 92.2979 96.5852V96.6193C92.2979 97.1051 91.8036 97.0625 90.6104 97.2159C89.396 97.3736 88.0707 97.642 88.0707 99.142C88.0707 100.42 89.0593 101.153 90.3036 101.153ZM90.457 100.25C89.6559 100.25 89.0763 99.892 89.0763 99.1932C89.0763 98.4261 89.7752 98.1875 90.5593 98.0852C90.9854 98.0341 92.1275 97.9148 92.2979 97.7102V98.6307C92.2979 99.4489 91.6502 100.25 90.457 100.25ZM96.1449 97.0625C96.1449 95.9205 96.8523 95.2727 97.8153 95.2727C98.7486 95.2727 99.3153 95.8821 99.3153 96.9091V101H100.321V96.8409C100.321 95.1705 99.4304 94.3693 98.1051 94.3693C97.1165 94.3693 96.5028 94.8125 96.196 95.4773H96.1108V94.4545H95.1392V101H96.1449V97.0625ZM106.284 98.3239C106.284 99.5511 105.346 100.114 104.596 100.114C103.761 100.114 103.164 99.5 103.164 98.5455V94.4545H102.159V98.6136C102.159 100.284 103.045 101.085 104.272 101.085C105.261 101.085 105.909 100.557 106.216 99.892H106.284V101H107.289V94.4545H106.284V98.3239ZM111.058 101.153C112.2 101.153 112.796 100.54 113.001 100.114H113.052V101H114.058V96.6875C114.058 94.608 112.472 94.3693 111.637 94.3693C110.648 94.3693 109.523 94.7102 109.012 95.9034L109.967 96.2443C110.188 95.767 110.712 95.2557 111.671 95.2557C112.596 95.2557 113.052 95.7457 113.052 96.5852V96.6193C113.052 97.1051 112.558 97.0625 111.364 97.2159C110.15 97.3736 108.825 97.642 108.825 99.142C108.825 100.42 109.813 101.153 111.058 101.153ZM111.211 100.25C110.41 100.25 109.83 99.892 109.83 99.1932C109.83 98.4261 110.529 98.1875 111.313 98.0852C111.739 98.0341 112.881 97.9148 113.052 97.7102V98.6307C113.052 99.4489 112.404 100.25 111.211 100.25ZM115.893 101H116.899V96.858C116.899 95.9716 117.598 95.3239 118.552 95.3239C118.821 95.3239 119.098 95.375 119.166 95.392V94.3693C119.051 94.3608 118.787 94.3523 118.637 94.3523C117.853 94.3523 117.172 94.7955 116.933 95.4432H116.865V94.4545H115.893V101ZM121.205 103.455C122.113 103.455 122.752 102.973 123.131 101.955L125.918 94.4716L124.819 94.4545L123.012 99.6705H122.944L121.137 94.4545H120.046L122.466 101.034L122.279 101.545C121.912 102.543 121.461 102.636 120.728 102.449L120.472 103.335C120.574 103.386 120.864 103.455 121.205 103.455ZM130.607 101H136.112V100.062H132.055V99.9943L134.016 97.8977C135.516 96.2912 135.959 95.5412 135.959 94.5739C135.959 93.2273 134.868 92.1534 133.334 92.1534C131.804 92.1534 130.641 93.1932 130.641 94.7273H131.646C131.646 93.7344 132.29 93.0739 133.3 93.0739C134.246 93.0739 134.97 93.6534 134.97 94.5739C134.97 95.3793 134.497 95.9759 133.487 97.0795L130.607 100.233V101ZM140.719 101.119C142.645 101.119 143.753 99.4872 143.753 96.6364C143.753 93.8068 142.628 92.1534 140.719 92.1534C138.81 92.1534 137.685 93.8068 137.685 96.6364C137.685 99.4872 138.793 101.119 140.719 101.119ZM140.719 100.182C139.449 100.182 138.707 98.9077 138.707 96.6364C138.707 94.3693 139.457 93.0739 140.719 93.0739C141.98 93.0739 142.73 94.3693 142.73 96.6364C142.73 98.9077 141.989 100.182 140.719 100.182ZM145.372 101H150.878V100.062H146.821V99.9943L148.781 97.8977C150.281 96.2912 150.724 95.5412 150.724 94.5739C150.724 93.2273 149.634 92.1534 148.099 92.1534C146.57 92.1534 145.406 93.1932 145.406 94.7273H146.412C146.412 93.7344 147.055 93.0739 148.065 93.0739C149.011 93.0739 149.736 93.6534 149.736 94.5739C149.736 95.3793 149.263 95.9759 148.253 97.0795L145.372 100.233V101ZM155.706 92.2727H154.649L152.467 93.7216V94.7955L154.598 93.3807H154.649V101H155.706V92.2727Z" fill="#718EBF"/>
<path d="M173.923 90.6562H174.974V88.5391H177.091V87.4883H174.974V85.375H173.923V87.4883H171.81V88.5391H173.923V90.6562ZM181.292 93H182.026L182.03 92.1211C183.683 92 184.628 91.0547 184.628 89.7891C184.628 88.3477 183.343 87.7891 182.327 87.5391L182.042 87.4648L182.05 84.957C182.78 85.0547 183.28 85.4609 183.354 86.1016H184.519C184.487 84.9102 183.503 84.0195 182.054 83.9023L182.058 83H181.323L181.319 83.9102C179.917 84.0508 178.89 84.9258 178.89 86.1875C178.89 87.3008 179.687 87.9531 180.972 88.3008L181.308 88.3906L181.3 91.0508C180.538 90.957 179.948 90.543 179.886 89.7891H178.675C178.749 91.1367 179.722 92.0039 181.296 92.1211L181.292 93ZM182.034 91.0508L182.042 88.5937C182.835 88.8125 183.433 89.1016 183.433 89.7773C183.433 90.4609 182.862 90.9414 182.034 91.0508ZM181.312 87.2695C180.729 87.0977 180.089 86.7891 180.093 86.1172C180.093 85.5312 180.558 85.0742 181.315 84.9609L181.312 87.2695ZM185.961 92H191.227V90.9648H187.625V90.9062L189.215 89.2422C190.68 87.7617 191.098 87.0547 191.098 86.1602C191.098 84.875 190.051 83.8906 188.543 83.8906C187.047 83.8906 185.953 84.8594 185.953 86.3203H187.105C187.102 85.4609 187.656 84.8984 188.52 84.8984C189.332 84.8984 189.949 85.3984 189.949 86.1953C189.949 86.9023 189.527 87.4102 188.668 88.3203L185.961 91.125V92ZM194.242 90.9062H193.117L193.078 91.3437C192.988 92.4023 192.738 93.4688 192.633 93.9531H193.461C193.648 93.4414 194.063 92.2695 194.184 91.332L194.242 90.9062ZM198.388 92.1094C199.997 92.1094 201.146 90.9727 201.142 89.4141C201.146 87.8672 200.067 86.7422 198.61 86.7422C198.017 86.7422 197.466 86.9687 197.153 87.2734H197.106L197.36 85.0352H200.755V84H196.356L195.907 88.0312L197.013 88.1953C197.313 87.9258 197.853 87.7422 198.337 87.7422C199.286 87.75 199.974 88.4609 199.974 89.4375C199.974 90.3984 199.306 91.0937 198.388 91.0937C197.614 91.0937 197.001 90.6016 196.938 89.9141H195.767C195.813 91.1875 196.919 92.1094 198.388 92.1094ZM205.354 92.1328C207.201 92.1328 208.283 90.625 208.283 88.0039C208.283 85.4023 207.186 83.8906 205.354 83.8906C203.518 83.8906 202.424 85.3984 202.42 88.0039C202.42 90.6211 203.502 92.1289 205.354 92.1328ZM205.354 91.0898C204.271 91.0898 203.619 90.0039 203.619 88.0039C203.623 86.0117 204.275 84.9141 205.354 84.9141C206.428 84.9141 207.084 86.0117 207.084 88.0039C207.084 90.0039 206.432 91.0898 205.354 91.0898ZM212.454 92.1328C214.302 92.1328 215.384 90.625 215.384 88.0039C215.384 85.4023 214.286 83.8906 212.454 83.8906C210.618 83.8906 209.524 85.3984 209.521 88.0039C209.521 90.6211 210.603 92.1289 212.454 92.1328ZM212.454 91.0898C211.372 91.0898 210.72 90.0039 210.72 88.0039C210.724 86.0117 211.376 84.9141 212.454 84.9141C213.528 84.9141 214.185 86.0117 214.185 88.0039C214.185 90.0039 213.532 91.0898 212.454 91.0898Z" fill="#41D4A8"/>
<circle cx="35" cy="87" r="20" fill="#E7EDFF"/>
<path d="M41.425 82.9876C41.4151 81.8945 40.9744 80.8495 40.1985 80.0795C39.4227 79.3095 38.3744 78.8767 37.2813 78.8751H31.25C31.1002 78.8731 30.9547 78.9251 30.84 79.0214C30.7253 79.1178 30.649 79.2522 30.625 79.4001L28.4875 92.8063C28.4742 92.8951 28.4801 92.9857 28.5049 93.072C28.5297 93.1582 28.5728 93.2382 28.6313 93.3063C28.6893 93.376 28.7619 93.4323 28.844 93.4712C28.926 93.51 29.0155 93.5305 29.1063 93.5313H31.6875L31.55 94.4001C31.5354 94.4901 31.5407 94.5822 31.5655 94.67C31.5903 94.7578 31.634 94.8391 31.6936 94.9082C31.7531 94.9773 31.8271 95.0325 31.9103 95.07C31.9934 95.1074 32.0838 95.1262 32.175 95.1251H35.0813C35.2302 95.1272 35.3749 95.0761 35.4895 94.981C35.6041 94.8859 35.681 94.753 35.7063 94.6063L36.3313 90.7876H38.3C39.5322 90.7826 40.7124 90.29 41.5826 89.4175C42.4527 88.545 42.9421 87.3635 42.9438 86.1313V85.9563C42.9431 85.3767 42.8052 84.8054 42.5412 84.2894C42.2772 83.7734 41.8947 83.3272 41.425 82.9876ZM31.7813 80.1251H37.2813C37.937 80.1271 38.5727 80.3512 39.0846 80.761C39.5965 81.1708 39.9544 81.7419 40.1 82.3813C39.8296 82.3179 39.5527 82.2864 39.275 82.2876H34.0625C33.9127 82.2856 33.7672 82.3376 33.6525 82.4339C33.5378 82.5303 33.4615 82.6647 33.4375 82.8126L33.0688 85.1251C33.0422 85.2908 33.0826 85.4603 33.1811 85.5963C33.2796 85.7322 33.428 85.8235 33.5938 85.8501C33.7595 85.8766 33.929 85.8362 34.065 85.7377C34.201 85.6392 34.2922 85.4908 34.3188 85.3251L34.6063 83.5251H39.2875C39.5871 83.5266 39.8838 83.5838 40.1625 83.6938C40.0437 84.6722 39.5716 85.5735 38.8351 86.2284C38.0985 86.8833 37.1481 87.2466 36.1625 87.2501H33.2625C33.1136 87.2479 32.9688 87.299 32.8543 87.3941C32.7397 87.4892 32.6628 87.6221 32.6375 87.7688L31.875 92.2813H29.8375L31.7813 80.1251ZM41.6938 86.1313C41.6921 87.032 41.3344 87.8956 40.6987 88.5337C40.063 89.1717 39.2007 89.5326 38.3 89.5376H35.8C35.6511 89.5354 35.5063 89.5865 35.3918 89.6816C35.2772 89.7767 35.2003 89.9096 35.175 90.0563L34.55 93.8751H32.9L33.0375 93.0063L33.7875 88.5126H36.15C37.3168 88.5091 38.4497 88.1198 39.3722 87.4054C40.2946 86.6909 40.9549 85.6914 41.25 84.5626C41.5401 84.9693 41.6953 85.4567 41.6938 85.9563V86.1313Z" fill="#396AFF"/>
<path d="M67.0994 31C69.9801 31 71.6467 29.2134 71.6467 26.2589C71.6467 23.3182 69.9801 21.5455 67.1964 21.5455H64.0387V31H67.0994ZM65.4652 29.7536V22.7919H67.1087C69.1768 22.7919 70.2433 24.0291 70.2433 26.2589C70.2433 28.4979 69.1768 29.7536 67.021 29.7536H65.4652ZM76.3659 31.1431C77.9124 31.1431 79.0065 30.3814 79.3204 29.2273L78.0139 28.9918C77.7646 29.6612 77.1645 30.0028 76.3797 30.0028C75.1979 30.0028 74.4039 29.2365 74.3669 27.87H79.4081V27.3807C79.4081 24.8185 77.8754 23.8168 76.2689 23.8168C74.2931 23.8168 72.9912 25.3217 72.9912 27.5007C72.9912 29.7028 74.2746 31.1431 76.3659 31.1431ZM74.3715 26.8359C74.4269 25.8295 75.1563 24.957 76.2781 24.957C77.3492 24.957 78.0509 25.7511 78.0555 26.8359H74.3715ZM80.9396 33.6591H82.32V29.8967H82.4031C82.6523 30.3491 83.1602 31.1385 84.4528 31.1385C86.1701 31.1385 87.4165 29.7628 87.4165 27.4684C87.4165 25.1694 86.1516 23.8168 84.4389 23.8168C83.1232 23.8168 82.6477 24.62 82.4031 25.0586H82.2876V23.9091H80.9396V33.6591ZM82.2923 27.4545C82.2923 25.9727 82.9386 24.9893 84.1435 24.9893C85.3945 24.9893 86.0224 26.0465 86.0224 27.4545C86.0224 28.8764 85.3761 29.9613 84.1435 29.9613C82.957 29.9613 82.2923 28.9457 82.2923 27.4545ZM91.9499 31.1431C93.9489 31.1431 95.2553 29.6797 95.2553 27.4869C95.2553 25.2802 93.9489 23.8168 91.9499 23.8168C89.951 23.8168 88.6445 25.2802 88.6445 27.4869C88.6445 29.6797 89.951 31.1431 91.9499 31.1431ZM91.9545 29.9844C90.6481 29.9844 90.0387 28.8441 90.0387 27.4822C90.0387 26.125 90.6481 24.9709 91.9545 24.9709C93.2518 24.9709 93.8612 26.125 93.8612 27.4822C93.8612 28.8441 93.2518 29.9844 91.9545 29.9844ZM102.11 25.6403C101.823 24.5369 100.96 23.8168 99.4275 23.8168C97.8256 23.8168 96.6899 24.6616 96.6899 25.9173C96.6899 26.9237 97.2993 27.593 98.6288 27.8885L99.8291 28.1516C100.512 28.304 100.831 28.6087 100.831 29.0518C100.831 29.6012 100.245 30.0305 99.3398 30.0305C98.5134 30.0305 97.9825 29.6751 97.8163 28.978L96.4822 29.1811C96.713 30.4368 97.7563 31.1431 99.349 31.1431C101.062 31.1431 102.248 30.2337 102.248 28.9503C102.248 27.9485 101.611 27.3299 100.309 27.0298L99.1828 26.7713C98.4026 26.5866 98.0656 26.3235 98.0702 25.8434C98.0656 25.2987 98.6565 24.9109 99.4413 24.9109C100.3 24.9109 100.697 25.3864 100.859 25.8619L102.11 25.6403ZM103.766 31H105.146V23.9091H103.766V31ZM104.463 22.815C104.938 22.815 105.335 22.4457 105.335 21.9933C105.335 21.5408 104.938 21.1669 104.463 21.1669C103.983 21.1669 103.59 21.5408 103.59 21.9933C103.59 22.4457 103.983 22.815 104.463 22.815ZM110.313 23.9091H108.859V22.2102H107.479V23.9091H106.44V25.017H107.479V29.2042C107.474 30.4922 108.457 31.1154 109.547 31.0923C109.985 31.0877 110.281 31.0046 110.442 30.9446L110.193 29.8043C110.101 29.8228 109.93 29.8643 109.708 29.8643C109.261 29.8643 108.859 29.7166 108.859 28.918V25.017H110.313V23.9091ZM118.655 23.9091H117.127V23.272C117.127 22.6442 117.386 22.3026 118.06 22.3026C118.346 22.3026 118.549 22.3672 118.678 22.4087L119.001 21.2915C118.807 21.2177 118.406 21.1023 117.847 21.1023C116.725 21.1023 115.742 21.7578 115.742 23.0874V23.9091H114.648V25.017H115.742V31H117.127V25.017H118.655V23.9091ZM120.079 31H121.46V26.6697C121.46 25.7418 122.175 25.0724 123.154 25.0724C123.44 25.0724 123.763 25.1232 123.874 25.1555V23.8352C123.736 23.8168 123.463 23.8029 123.288 23.8029C122.457 23.8029 121.746 24.2738 121.487 25.0355H121.413V23.9091H120.079V31ZM127.801 31.1431C129.8 31.1431 131.107 29.6797 131.107 27.4869C131.107 25.2802 129.8 23.8168 127.801 23.8168C125.803 23.8168 124.496 25.2802 124.496 27.4869C124.496 29.6797 125.803 31.1431 127.801 31.1431ZM127.806 29.9844C126.5 29.9844 125.89 28.8441 125.89 27.4822C125.89 26.125 126.5 24.9709 127.806 24.9709C129.103 24.9709 129.713 26.125 129.713 27.4822C129.713 28.8441 129.103 29.9844 127.806 29.9844ZM132.648 31H134.028V26.6282C134.028 25.6726 134.697 25.0078 135.482 25.0078C136.248 25.0078 136.779 25.5156 136.779 26.2866V31H138.155V26.4805C138.155 25.6264 138.677 25.0078 139.577 25.0078C140.306 25.0078 140.907 25.4141 140.907 26.3743V31H142.287V26.245C142.287 24.6246 141.382 23.8168 140.099 23.8168C139.078 23.8168 138.312 24.3061 137.97 25.0632H137.897C137.587 24.2876 136.936 23.8168 135.99 23.8168C135.053 23.8168 134.356 24.283 134.06 25.0632H133.973V23.9091H132.648V31ZM147.577 31H148.958V26.6282C148.958 25.6726 149.627 25.0078 150.412 25.0078C151.178 25.0078 151.709 25.5156 151.709 26.2866V31H153.085V26.4805C153.085 25.6264 153.606 25.0078 154.507 25.0078C155.236 25.0078 155.836 25.4141 155.836 26.3743V31H157.217V26.245C157.217 24.6246 156.312 23.8168 155.028 23.8168C154.008 23.8168 153.242 24.3061 152.9 25.0632H152.826C152.517 24.2876 151.866 23.8168 150.92 23.8168C149.983 23.8168 149.285 24.283 148.99 25.0632H148.902V23.9091H147.577V31ZM159.685 33.6591C160.825 33.6591 161.546 33.0636 161.956 31.9464L164.888 23.9229L163.397 23.9091L161.601 29.4119H161.527L159.731 23.9091H158.254L160.849 31.0923L160.678 31.5632C160.327 32.505 159.833 32.5835 159.076 32.3757L158.743 33.5067C158.91 33.5806 159.27 33.6591 159.685 33.6591Z" fill="#232323"/>
<path d="M63.9034 49H69.4091V48.0625H65.3523V47.9943L67.3125 45.8977C68.8125 44.2912 69.2557 43.5412 69.2557 42.5739C69.2557 41.2273 68.1648 40.1534 66.6307 40.1534C65.1009 40.1534 63.9375 41.1932 63.9375 42.7273H64.9432C64.9432 41.7344 65.5866 41.0739 66.5966 41.0739C67.5426 41.0739 68.267 41.6534 68.267 42.5739C68.267 43.3793 67.794 43.9759 66.7841 45.0795L63.9034 48.233V49ZM73.9645 49.1193C75.7074 49.1193 76.9219 48.1009 76.9304 46.6818C76.9219 45.5781 76.1847 44.6406 75.2429 44.4659V44.4148C76.0611 44.2017 76.598 43.4006 76.6065 42.4716C76.598 41.142 75.4815 40.1534 73.9645 40.1534C72.4304 40.1534 71.3139 41.142 71.3224 42.4716C71.3139 43.4006 71.8509 44.2017 72.6861 44.4148V44.4659C71.7273 44.6406 70.9901 45.5781 70.9986 46.6818C70.9901 48.1009 72.2045 49.1193 73.9645 49.1193ZM73.9645 48.1818C72.767 48.1818 72.0298 47.5682 72.0384 46.6307C72.0298 45.6463 72.8438 44.9432 73.9645 44.9432C75.0682 44.9432 75.8821 45.6463 75.8906 46.6307C75.8821 47.5682 75.1449 48.1818 73.9645 48.1818ZM73.9645 44.0398C73.0099 44.0398 72.3366 43.4432 72.3452 42.5398C72.3366 41.6534 72.9844 41.0739 73.9645 41.0739C74.9276 41.0739 75.5753 41.6534 75.5838 42.5398C75.5753 43.4432 74.902 44.0398 73.9645 44.0398ZM85.4329 40.2727V46.5114C85.4329 47.598 84.913 48.1818 84.0011 48.1818C83.1701 48.1818 82.5692 47.696 82.5692 46.9545H81.5295C81.5295 48.2969 82.5692 49.1193 84.0011 49.1193C85.5181 49.1193 86.4897 48.1861 86.4897 46.5114V40.2727H85.4329ZM90.3974 49.1534C91.5394 49.1534 92.136 48.5398 92.3406 48.1136H92.3917V49H93.3974V44.6875C93.3974 42.608 91.8121 42.3693 90.9769 42.3693C89.9883 42.3693 88.8633 42.7102 88.3519 43.9034L89.3065 44.2443C89.5281 43.767 90.0522 43.2557 91.011 43.2557C91.9357 43.2557 92.3917 43.7457 92.3917 44.5852V44.6193C92.3917 45.1051 91.8974 45.0625 90.7042 45.2159C89.4897 45.3736 88.1644 45.642 88.1644 47.142C88.1644 48.4205 89.1531 49.1534 90.3974 49.1534ZM90.5508 48.25C89.7496 48.25 89.1701 47.892 89.1701 47.1932C89.1701 46.4261 89.869 46.1875 90.6531 46.0852C91.0792 46.0341 92.2212 45.9148 92.3917 45.7102V46.6307C92.3917 47.4489 91.744 48.25 90.5508 48.25ZM96.2386 45.0625C96.2386 43.9205 96.946 43.2727 97.9091 43.2727C98.8423 43.2727 99.4091 43.8821 99.4091 44.9091V49H100.415V44.8409C100.415 43.1705 99.5241 42.3693 98.1989 42.3693C97.2102 42.3693 96.5966 42.8125 96.2898 43.4773H96.2045V42.4545H95.233V49H96.2386V45.0625ZM106.377 46.3239C106.377 47.5511 105.44 48.1136 104.69 48.1136C103.855 48.1136 103.258 47.5 103.258 46.5455V42.4545H102.252V46.6136C102.252 48.2841 103.139 49.0852 104.366 49.0852C105.355 49.0852 106.002 48.5568 106.309 47.892H106.377V49H107.383V42.4545H106.377V46.3239ZM111.151 49.1534C112.293 49.1534 112.89 48.5398 113.094 48.1136H113.146V49H114.151V44.6875C114.151 42.608 112.566 42.3693 111.731 42.3693C110.742 42.3693 109.617 42.7102 109.106 43.9034L110.06 44.2443C110.282 43.767 110.806 43.2557 111.765 43.2557C112.69 43.2557 113.146 43.7457 113.146 44.5852V44.6193C113.146 45.1051 112.651 45.0625 111.458 45.2159C110.244 45.3736 108.918 45.642 108.918 47.142C108.918 48.4205 109.907 49.1534 111.151 49.1534ZM111.305 48.25C110.504 48.25 109.924 47.892 109.924 47.1932C109.924 46.4261 110.623 46.1875 111.407 46.0852C111.833 46.0341 112.975 45.9148 113.146 45.7102V46.6307C113.146 47.4489 112.498 48.25 111.305 48.25ZM115.987 49H116.993V44.858C116.993 43.9716 117.691 43.3239 118.646 43.3239C118.914 43.3239 119.191 43.375 119.26 43.392V42.3693C119.145 42.3608 118.88 42.3523 118.731 42.3523C117.947 42.3523 117.265 42.7955 117.027 43.4432H116.958V42.4545H115.987V49ZM121.299 51.4545C122.206 51.4545 122.846 50.973 123.225 49.9545L126.012 42.4716L124.912 42.4545L123.105 47.6705H123.037L121.23 42.4545H120.14L122.56 49.0341L122.373 49.5455C122.006 50.5426 121.554 50.6364 120.821 50.4489L120.566 51.3352C120.668 51.3864 120.958 51.4545 121.299 51.4545ZM130.7 49H136.206V48.0625H132.149V47.9943L134.109 45.8977C135.609 44.2912 136.053 43.5412 136.053 42.5739C136.053 41.2273 134.962 40.1534 133.428 40.1534C131.898 40.1534 130.734 41.1932 130.734 42.7273H131.74C131.74 41.7344 132.384 41.0739 133.393 41.0739C134.339 41.0739 135.064 41.6534 135.064 42.5739C135.064 43.3793 134.591 43.9759 133.581 45.0795L130.7 48.233V49ZM140.812 49.1193C142.739 49.1193 143.847 47.4872 143.847 44.6364C143.847 41.8068 142.722 40.1534 140.812 40.1534C138.903 40.1534 137.778 41.8068 137.778 44.6364C137.778 47.4872 138.886 49.1193 140.812 49.1193ZM140.812 48.1818C139.543 48.1818 138.801 46.9077 138.801 44.6364C138.801 42.3693 139.551 41.0739 140.812 41.0739C142.074 41.0739 142.824 42.3693 142.824 44.6364C142.824 46.9077 142.082 48.1818 140.812 48.1818ZM145.466 49H150.972V48.0625H146.915V47.9943L148.875 45.8977C150.375 44.2912 150.818 43.5412 150.818 42.5739C150.818 41.2273 149.727 40.1534 148.193 40.1534C146.663 40.1534 145.5 41.1932 145.5 42.7273H146.506C146.506 41.7344 147.149 41.0739 148.159 41.0739C149.105 41.0739 149.83 41.6534 149.83 42.5739C149.83 43.3793 149.357 43.9759 148.347 45.0795L145.466 48.233V49ZM155.8 40.2727H154.743L152.561 41.7216V42.7955L154.692 41.3807H154.743V49H155.8V40.2727Z" fill="#718EBF"/>
<path d="M187.277 35.4961H183.73V36.5078H187.277V35.4961ZM191.229 41H191.963L191.967 40.1211C193.619 40 194.564 39.0547 194.564 37.7891C194.564 36.3477 193.279 35.7891 192.264 35.5391L191.979 35.4648L191.986 32.957C192.717 33.0547 193.217 33.4609 193.291 34.1016H194.455C194.424 32.9102 193.439 32.0195 191.99 31.9023L191.994 31H191.26L191.256 31.9102C189.854 32.0508 188.826 32.9258 188.826 34.1875C188.826 35.3008 189.623 35.9531 190.908 36.3008L191.244 36.3906L191.236 39.0508C190.475 38.957 189.885 38.543 189.822 37.7891H188.611C188.686 39.1367 189.658 40.0039 191.232 40.1211L191.229 41ZM191.971 39.0508L191.979 36.5937C192.771 36.8125 193.369 37.1016 193.369 37.7773C193.369 38.4609 192.799 38.9414 191.971 39.0508ZM191.248 35.2695C190.666 35.0977 190.025 34.7891 190.029 34.1172C190.029 33.5312 190.494 33.0742 191.252 32.9609L191.248 35.2695ZM198.601 40.1094C200.265 40.1094 201.44 39.1641 201.448 37.8672C201.44 36.8594 200.733 36.0117 199.839 35.8516V35.8047C200.616 35.6172 201.144 34.8867 201.151 34.0234C201.144 32.8008 200.065 31.8906 198.601 31.8906C197.12 31.8906 196.042 32.8008 196.05 34.0234C196.042 34.8828 196.569 35.6172 197.362 35.8047V35.8516C196.452 36.0117 195.745 36.8594 195.753 37.8672C195.745 39.1641 196.921 40.1094 198.601 40.1094ZM198.601 39.1211C197.601 39.1211 196.968 38.5898 196.976 37.7891C196.968 36.957 197.655 36.3633 198.601 36.3633C199.53 36.3633 200.218 36.957 200.226 37.7891C200.218 38.5898 199.589 39.1211 198.601 39.1211ZM198.601 35.3984C197.792 35.3984 197.218 34.8867 197.226 34.125C197.218 33.375 197.772 32.8789 198.601 32.8789C199.413 32.8789 199.968 33.375 199.976 34.125C199.968 34.8867 199.397 35.3984 198.601 35.3984ZM205.488 40.1094C207.098 40.1094 208.246 38.9727 208.242 37.4141C208.246 35.8672 207.168 34.7422 205.711 34.7422C205.117 34.7422 204.566 34.9687 204.254 35.2734H204.207L204.461 33.0352H207.855V32H203.457L203.008 36.0312L204.113 36.1953C204.414 35.9258 204.953 35.7422 205.438 35.7422C206.387 35.75 207.074 36.4609 207.074 37.4375C207.074 38.3984 206.406 39.0937 205.488 39.0937C204.715 39.0937 204.102 38.6016 204.039 37.9141H202.867C202.914 39.1875 204.02 40.1094 205.488 40.1094ZM212.454 40.1328C214.302 40.1328 215.384 38.625 215.384 36.0039C215.384 33.4023 214.286 31.8906 212.454 31.8906C210.618 31.8906 209.524 33.3984 209.521 36.0039C209.521 38.6211 210.603 40.1289 212.454 40.1328ZM212.454 39.0898C211.372 39.0898 210.72 38.0039 210.72 36.0039C210.724 34.0117 211.376 32.9141 212.454 32.9141C213.528 32.9141 214.185 34.0117 214.185 36.0039C214.185 38.0039 213.532 39.0898 212.454 39.0898Z" fill="#FF4B4A"/>
<circle cx="35" cy="35" r="20" fill="#FFF5D9"/>
<path d="M38.318 42.578H29.057C28.5614 42.5775 28.0861 42.3804 27.7356 42.0299C27.3852 41.6794 27.188 41.2042 27.1875 40.7085V35.1815C27.188 34.6859 27.3852 34.2106 27.7356 33.8602C28.0861 33.5097 28.5614 33.3125 29.057 33.312H38.318C38.8136 33.3125 39.2889 33.5097 39.6394 33.8602C39.9898 34.2106 40.187 34.6859 40.1875 35.1815V40.7085C40.187 41.2042 39.9898 41.6794 39.6394 42.0299C39.2889 42.3804 38.8136 42.5775 38.318 42.578ZM29.057 34.4839C28.8721 34.4841 28.6947 34.5577 28.5639 34.6885C28.4332 34.8192 28.3596 34.9966 28.3594 35.1815V40.7085C28.3596 40.8935 28.4332 41.0708 28.5639 41.2016C28.6947 41.3324 28.8721 41.4059 29.057 41.4062H38.318C38.5029 41.4059 38.6803 41.3324 38.8111 41.2016C38.9418 41.0708 39.0154 40.8935 39.0156 40.7085V35.1815C39.0154 34.9966 38.9418 34.8192 38.8111 34.6885C38.6803 34.5577 38.5029 34.4841 38.318 34.4839H29.057Z" fill="#FFBB38"/>
<path d="M40.9437 39.4227H39.6015C39.4461 39.4227 39.2971 39.3609 39.1872 39.251C39.0773 39.1412 39.0156 38.9921 39.0156 38.8367C39.0156 38.6813 39.0773 38.5323 39.1872 38.4224C39.2971 38.3125 39.4461 38.2508 39.6015 38.2508H40.9437C41.1286 38.2504 41.3057 38.1767 41.4363 38.0459C41.5669 37.9152 41.6404 37.738 41.6406 37.5531V32.0262C41.6405 31.8413 41.5671 31.664 41.4365 31.5331C41.3058 31.4023 41.1286 31.3285 40.9437 31.3281H31.6828C31.4978 31.3283 31.3205 31.4019 31.1897 31.5327C31.0589 31.6635 30.9853 31.8408 30.9851 32.0258V33.8977C30.9851 34.0531 30.9234 34.2021 30.8135 34.312C30.7036 34.4219 30.5546 34.4836 30.3992 34.4836C30.2438 34.4836 30.0948 34.4219 29.9849 34.312C29.875 34.2021 29.8133 34.0531 29.8133 33.8977V32.0262C29.8137 31.5304 30.0108 31.0551 30.3613 30.7045C30.7118 30.354 31.1871 30.1568 31.6828 30.1562H40.9437C41.4393 30.157 41.9144 30.3543 42.2648 30.7048C42.6151 31.0554 42.8121 31.5306 42.8125 32.0262V37.5531C42.812 38.0487 42.6149 38.5238 42.2646 38.8742C41.9143 39.2247 41.4393 39.4219 40.9437 39.4227Z" fill="#FFBB38"/>
<path d="M39.6016 38.3903H27.7734C27.618 38.3903 27.469 38.3286 27.3591 38.2187C27.2492 38.1088 27.1875 37.9598 27.1875 37.8044V35.8364C27.1875 35.681 27.2492 35.532 27.3591 35.4221C27.469 35.3122 27.618 35.2505 27.7734 35.2505H39.6016C39.757 35.2505 39.906 35.3122 40.0159 35.4221C40.1258 35.532 40.1875 35.681 40.1875 35.8364V37.8044C40.1875 37.9598 40.1258 38.1088 40.0159 38.2187C39.906 38.3286 39.757 38.3903 39.6016 38.3903ZM28.3594 37.2185H39.0156V36.4224H28.3594V37.2185Z" fill="#FFBB38"/>
<path d="M71.7134 121.545V128.249C71.7088 129.338 71.201 129.92 70.2962 129.92C69.4606 129.92 68.8789 129.421 68.8743 128.636H67.457C67.457 130.234 68.6573 131.129 70.2592 131.129C71.995 131.129 73.1307 130.067 73.1353 128.249V121.545H71.7134ZM78.1569 131.143C79.7034 131.143 80.7975 130.381 81.1114 129.227L79.805 128.992C79.5557 129.661 78.9555 130.003 78.1707 130.003C76.9889 130.003 76.1949 129.237 76.1579 127.87H81.1991V127.381C81.1991 124.819 79.6665 123.817 78.0599 123.817C76.0841 123.817 74.7822 125.322 74.7822 127.501C74.7822 129.703 76.0656 131.143 78.1569 131.143ZM76.1626 126.836C76.218 125.83 76.9474 124.957 78.0692 124.957C79.1402 124.957 79.8419 125.751 79.8465 126.836H76.1626ZM82.7306 131H84.111V126.628C84.111 125.673 84.7804 125.008 85.5652 125.008C86.3315 125.008 86.8624 125.516 86.8624 126.287V131H88.2381V126.48C88.2381 125.626 88.7598 125.008 89.66 125.008C90.3894 125.008 90.9895 125.414 90.9895 126.374V131H92.3699V126.245C92.3699 124.625 91.465 123.817 90.1816 123.817C89.1614 123.817 88.3951 124.306 88.0534 125.063H87.9796C87.6703 124.288 87.0194 123.817 86.073 123.817C85.1358 123.817 84.4387 124.283 84.1433 125.063H84.0556V123.909H82.7306V131ZM94.2199 131H95.6002V123.909H94.2199V131ZM94.917 122.815C95.3925 122.815 95.7895 122.446 95.7895 121.993C95.7895 121.541 95.3925 121.167 94.917 121.167C94.4369 121.167 94.0445 121.541 94.0445 121.993C94.0445 122.446 94.4369 122.815 94.917 122.815ZM102.86 131H104.3L106.29 123.918H106.364L108.353 131H109.789L112.416 121.545H110.911L109.073 128.872H108.986L107.07 121.545H105.583L103.668 128.867H103.58L101.738 121.545H100.237L102.86 131ZM113.606 131H114.986V123.909H113.606V131ZM114.303 122.815C114.778 122.815 115.175 122.446 115.175 121.993C115.175 121.541 114.778 121.167 114.303 121.167C113.823 121.167 113.43 121.541 113.43 121.993C113.43 122.446 113.823 122.815 114.303 122.815ZM118.223 121.545H116.843V131H118.223V121.545ZM125.394 125.64C125.108 124.537 124.244 123.817 122.712 123.817C121.11 123.817 119.974 124.662 119.974 125.917C119.974 126.924 120.583 127.593 121.913 127.888L123.113 128.152C123.797 128.304 124.115 128.609 124.115 129.052C124.115 129.601 123.529 130.031 122.624 130.031C121.798 130.031 121.267 129.675 121.1 128.978L119.766 129.181C119.997 130.437 121.04 131.143 122.633 131.143C124.346 131.143 125.532 130.234 125.532 128.95C125.532 127.949 124.895 127.33 123.593 127.03L122.467 126.771C121.687 126.587 121.35 126.324 121.354 125.843C121.35 125.299 121.941 124.911 122.725 124.911C123.584 124.911 123.981 125.386 124.143 125.862L125.394 125.64ZM130.037 131.143C132.036 131.143 133.342 129.68 133.342 127.487C133.342 125.28 132.036 123.817 130.037 123.817C128.038 123.817 126.731 125.28 126.731 127.487C126.731 129.68 128.038 131.143 130.037 131.143ZM130.041 129.984C128.735 129.984 128.126 128.844 128.126 127.482C128.126 126.125 128.735 124.971 130.041 124.971C131.339 124.971 131.948 126.125 131.948 127.482C131.948 128.844 131.339 129.984 130.041 129.984ZM136.263 126.79C136.263 125.659 136.956 125.012 137.916 125.012C138.853 125.012 139.421 125.626 139.421 126.656V131H140.801V126.49C140.801 124.735 139.836 123.817 138.387 123.817C137.32 123.817 136.623 124.311 136.296 125.063H136.208V123.909H134.883V131H136.263V126.79Z" fill="#232323"/>
<path d="M67.9034 149H73.4091V148.062H69.3523V147.994L71.3125 145.898C72.8125 144.291 73.2557 143.541 73.2557 142.574C73.2557 141.227 72.1648 140.153 70.6307 140.153C69.1009 140.153 67.9375 141.193 67.9375 142.727H68.9432C68.9432 141.734 69.5866 141.074 70.5966 141.074C71.5426 141.074 72.267 141.653 72.267 142.574C72.267 143.379 71.794 143.976 70.7841 145.08L67.9034 148.233V149ZM78.2372 140.273H77.1804L74.9986 141.722V142.795L77.1293 141.381H77.1804V149H78.2372V140.273ZM87.6165 140.273V146.511C87.6165 147.598 87.0966 148.182 86.1847 148.182C85.3537 148.182 84.7528 147.696 84.7528 146.955H83.7131C83.7131 148.297 84.7528 149.119 86.1847 149.119C87.7017 149.119 88.6733 148.186 88.6733 146.511V140.273H87.6165ZM92.581 149.153C93.723 149.153 94.3196 148.54 94.5241 148.114H94.5753V149H95.581V144.688C95.581 142.608 93.9957 142.369 93.1605 142.369C92.1719 142.369 91.0469 142.71 90.5355 143.903L91.4901 144.244C91.7116 143.767 92.2358 143.256 93.1946 143.256C94.1193 143.256 94.5753 143.746 94.5753 144.585V144.619C94.5753 145.105 94.081 145.062 92.8878 145.216C91.6733 145.374 90.348 145.642 90.348 147.142C90.348 148.42 91.3366 149.153 92.581 149.153ZM92.7344 148.25C91.9332 148.25 91.3537 147.892 91.3537 147.193C91.3537 146.426 92.0526 146.188 92.8366 146.085C93.2628 146.034 94.4048 145.915 94.5753 145.71V146.631C94.5753 147.449 93.9276 148.25 92.7344 148.25ZM98.4222 145.062C98.4222 143.92 99.1296 143.273 100.093 143.273C101.026 143.273 101.593 143.882 101.593 144.909V149H102.598V144.841C102.598 143.17 101.708 142.369 100.382 142.369C99.3938 142.369 98.7802 142.812 98.4734 143.477H98.3881V142.455H97.4165V149H98.4222V145.062ZM108.561 146.324C108.561 147.551 107.624 148.114 106.874 148.114C106.038 148.114 105.442 147.5 105.442 146.545V142.455H104.436V146.614C104.436 148.284 105.322 149.085 106.55 149.085C107.538 149.085 108.186 148.557 108.493 147.892H108.561V149H109.567V142.455H108.561V146.324ZM113.335 149.153C114.477 149.153 115.074 148.54 115.278 148.114H115.329V149H116.335V144.688C116.335 142.608 114.75 142.369 113.914 142.369C112.926 142.369 111.801 142.71 111.289 143.903L112.244 144.244C112.466 143.767 112.99 143.256 113.949 143.256C114.873 143.256 115.329 143.746 115.329 144.585V144.619C115.329 145.105 114.835 145.062 113.642 145.216C112.427 145.374 111.102 145.642 111.102 147.142C111.102 148.42 112.091 149.153 113.335 149.153ZM113.488 148.25C112.687 148.25 112.108 147.892 112.108 147.193C112.108 146.426 112.806 146.188 113.591 146.085C114.017 146.034 115.159 145.915 115.329 145.71V146.631C115.329 147.449 114.681 148.25 113.488 148.25ZM118.17 149H119.176V144.858C119.176 143.972 119.875 143.324 120.83 143.324C121.098 143.324 121.375 143.375 121.443 143.392V142.369C121.328 142.361 121.064 142.352 120.915 142.352C120.131 142.352 119.449 142.795 119.21 143.443H119.142V142.455H118.17V149ZM123.482 151.455C124.39 151.455 125.029 150.973 125.408 149.955L128.195 142.472L127.096 142.455L125.289 147.67H125.221L123.414 142.455H122.323L124.744 149.034L124.556 149.545C124.19 150.543 123.738 150.636 123.005 150.449L122.749 151.335C122.852 151.386 123.141 151.455 123.482 151.455ZM132.884 149H138.39V148.062H134.333V147.994L136.293 145.898C137.793 144.291 138.236 143.541 138.236 142.574C138.236 141.227 137.145 140.153 135.611 140.153C134.081 140.153 132.918 141.193 132.918 142.727H133.924C133.924 141.734 134.567 141.074 135.577 141.074C136.523 141.074 137.248 141.653 137.248 142.574C137.248 143.379 136.775 143.976 135.765 145.08L132.884 148.233V149ZM142.996 149.119C144.922 149.119 146.03 147.487 146.03 144.636C146.03 141.807 144.905 140.153 142.996 140.153C141.087 140.153 139.962 141.807 139.962 144.636C139.962 147.487 141.07 149.119 142.996 149.119ZM142.996 148.182C141.726 148.182 140.985 146.908 140.985 144.636C140.985 142.369 141.735 141.074 142.996 141.074C144.257 141.074 145.007 142.369 145.007 144.636C145.007 146.908 144.266 148.182 142.996 148.182ZM147.65 149H153.155V148.062H149.098V147.994L151.059 145.898C152.559 144.291 153.002 143.541 153.002 142.574C153.002 141.227 151.911 140.153 150.377 140.153C148.847 140.153 147.684 141.193 147.684 142.727H148.689C148.689 141.734 149.333 141.074 150.343 141.074C151.289 141.074 152.013 141.653 152.013 142.574C152.013 143.379 151.54 143.976 150.53 145.08L147.65 148.233V149ZM157.983 140.273H156.926L154.745 141.722V142.795L156.875 141.381H156.926V149H157.983V140.273Z" fill="#718EBF"/>
<path d="M173.622 138.656H174.673V136.539H176.79V135.488H174.673V133.375H173.622V135.488H171.509V136.539H173.622V138.656ZM180.991 141H181.726L181.729 140.121C183.382 140 184.327 139.055 184.327 137.789C184.327 136.348 183.042 135.789 182.026 135.539L181.741 135.465L181.749 132.957C182.479 133.055 182.979 133.461 183.054 134.102H184.218C184.187 132.91 183.202 132.02 181.753 131.902L181.757 131H181.022L181.019 131.91C179.616 132.051 178.589 132.926 178.589 134.187C178.589 135.301 179.386 135.953 180.671 136.301L181.007 136.391L180.999 139.051C180.237 138.957 179.647 138.543 179.585 137.789H178.374C178.448 139.137 179.421 140.004 180.995 140.121L180.991 141ZM181.733 139.051L181.741 136.594C182.534 136.812 183.132 137.102 183.132 137.777C183.132 138.461 182.562 138.941 181.733 139.051ZM181.011 135.27C180.429 135.098 179.788 134.789 179.792 134.117C179.792 133.531 180.257 133.074 181.015 132.961L181.011 135.27ZM188.301 140.109C189.91 140.109 191.059 138.973 191.055 137.414C191.059 135.867 189.98 134.742 188.523 134.742C187.93 134.742 187.379 134.969 187.066 135.273H187.02L187.273 133.035H190.668V132H186.27L185.82 136.031L186.926 136.195C187.227 135.926 187.766 135.742 188.25 135.742C189.199 135.75 189.887 136.461 189.887 137.437C189.887 138.398 189.219 139.094 188.301 139.094C187.527 139.094 186.914 138.602 186.852 137.914H185.68C185.727 139.187 186.832 140.109 188.301 140.109ZM193.737 138.906H192.612L192.573 139.344C192.483 140.402 192.233 141.469 192.128 141.953H192.956C193.144 141.441 193.558 140.27 193.679 139.332L193.737 138.906ZM195.203 138.438H198.996V140H200.148V138.438H201.207V137.414H200.148V132H198.66L195.203 137.461V138.438ZM199.004 137.414H196.469V137.352L198.941 133.437H199.004V137.414ZM205.354 140.133C207.201 140.133 208.283 138.625 208.283 136.004C208.283 133.402 207.186 131.891 205.354 131.891C203.518 131.891 202.424 133.398 202.42 136.004C202.42 138.621 203.502 140.129 205.354 140.133ZM205.354 139.09C204.271 139.09 203.619 138.004 203.619 136.004C203.623 134.012 204.275 132.914 205.354 132.914C206.428 132.914 207.084 134.012 207.084 136.004C207.084 138.004 206.432 139.09 205.354 139.09ZM212.454 140.133C214.302 140.133 215.384 138.625 215.384 136.004C215.384 133.402 214.286 131.891 212.454 131.891C210.618 131.891 209.524 133.398 209.521 136.004C209.521 138.621 210.603 140.129 212.454 140.133ZM212.454 139.09C211.372 139.09 210.72 138.004 210.72 136.004C210.724 134.012 211.376 132.914 212.454 132.914C213.528 132.914 214.185 134.012 214.185 136.004C214.185 138.004 213.532 139.09 212.454 139.09Z" fill="#41D4A8"/>
<circle cx="35" cy="135" r="20" fill="#DCFAF8"/>
<path d="M35.0001 133.128C35.3544 133.128 35.6438 133.416 35.6438 133.771C35.6438 134.094 35.9066 134.356 36.23 134.356C36.5526 134.356 36.8154 134.094 36.8154 133.771C36.8154 132.977 36.2979 132.306 35.5855 132.061V131.729C35.5855 131.406 35.3234 131.143 35.0001 131.143C34.676 131.143 34.4139 131.406 34.4139 131.729V132.061C33.7016 132.306 33.1855 132.977 33.1855 133.771C33.1855 134.773 33.9991 135.586 35.0001 135.586C35.3544 135.586 35.6438 135.876 35.6438 136.23C35.6438 136.585 35.3544 136.874 35.0001 136.874C34.6458 136.874 34.3571 136.585 34.3571 136.23C34.3571 135.907 34.0943 135.644 33.771 135.644C33.4469 135.644 33.1855 135.907 33.1855 136.23C33.1855 137.024 33.7016 137.694 34.4139 137.939V138.271C34.4139 138.595 34.676 138.858 35.0001 138.858C35.3234 138.858 35.5855 138.595 35.5855 138.271V137.939C36.2979 137.694 36.8154 137.024 36.8154 136.23C36.8154 135.229 36.0011 134.415 35.0001 134.415C34.6458 134.415 34.3571 134.126 34.3571 133.771C34.3571 133.416 34.6458 133.128 35.0001 133.128ZM39.9086 138.253C40.1957 138.405 40.5493 138.295 40.6999 138.01C41.1872 137.089 41.4441 136.048 41.4441 135C41.4441 131.448 38.5524 128.557 35.0001 128.557C31.447 128.557 28.5561 131.448 28.5561 135C28.5561 138.553 31.447 141.444 35.0001 141.444C36.0329 141.444 37.059 141.194 37.9678 140.721C38.2549 140.573 38.3664 140.218 38.2173 139.931C38.0682 139.646 37.7146 139.532 37.4266 139.682C36.6744 140.075 35.8572 140.273 35.0001 140.273C32.093 140.273 29.727 137.908 29.727 135C29.727 132.094 32.093 129.728 35.0001 129.728C37.9072 129.728 40.2732 132.094 40.2732 135C40.2732 135.859 40.0621 136.71 39.6649 137.461C39.5129 137.748 39.6221 138.102 39.9086 138.253ZM35.0001 126.212C33.3029 126.212 31.6552 126.698 30.2356 127.616C29.9632 127.791 29.8857 128.154 30.0614 128.425C30.2378 128.697 30.5988 128.774 30.8719 128.6C32.1004 127.805 33.5296 127.384 35.0001 127.384C39.1999 127.384 42.6156 130.801 42.6156 135C42.6156 139.2 39.1999 142.616 35.0001 142.616C30.8003 142.616 27.3838 139.2 27.3838 135C27.3838 133.543 27.7965 132.127 28.5783 130.905C28.7525 130.632 28.6728 130.269 28.3996 130.095C28.1272 129.921 27.7648 130.001 27.5913 130.273C26.6892 131.684 26.2123 133.32 26.2123 135C26.2123 139.846 30.1537 143.788 35.0001 143.788C39.8458 143.788 43.7879 139.846 43.7879 135C43.7879 130.155 39.8458 126.212 35.0001 126.212Z" fill="#16DBCC"/>
</svg>
