<svg width="350" height="235" viewBox="0 0 350 235" fill="none" xmlns="http://www.w3.org/2000/svg">
<rect width="350" height="235" rx="25" fill="white"/>
<path d="M102.045 111C105.591 111 107.642 108.801 107.642 105.165C107.642 101.545 105.591 99.3636 102.165 99.3636H98.2784V111H102.045ZM100.034 109.466V100.898H102.057C104.602 100.898 105.915 102.42 105.915 105.165C105.915 107.92 104.602 109.466 101.949 109.466H100.034ZM113.45 111.176C115.354 111.176 116.7 110.239 117.087 108.818L115.479 108.528C115.172 109.352 114.433 109.773 113.467 109.773C112.013 109.773 111.036 108.83 110.99 107.148H117.195V106.545C117.195 103.392 115.308 102.159 113.331 102.159C110.899 102.159 109.297 104.011 109.297 106.693C109.297 109.403 110.876 111.176 113.45 111.176ZM110.996 105.875C111.064 104.636 111.962 103.562 113.342 103.562C114.661 103.562 115.524 104.54 115.53 105.875H110.996ZM119.08 114.273H120.778V109.642H120.881C121.188 110.199 121.812 111.17 123.403 111.17C125.517 111.17 127.051 109.477 127.051 106.653C127.051 103.824 125.494 102.159 123.386 102.159C121.767 102.159 121.182 103.148 120.881 103.688H120.739V102.273H119.08V114.273ZM120.744 106.636C120.744 104.812 121.54 103.602 123.023 103.602C124.562 103.602 125.335 104.903 125.335 106.636C125.335 108.386 124.54 109.722 123.023 109.722C121.562 109.722 120.744 108.472 120.744 106.636ZM132.631 111.176C135.091 111.176 136.699 109.375 136.699 106.676C136.699 103.96 135.091 102.159 132.631 102.159C130.17 102.159 128.562 103.96 128.562 106.676C128.562 109.375 130.17 111.176 132.631 111.176ZM132.636 109.75C131.028 109.75 130.278 108.347 130.278 106.67C130.278 105 131.028 103.58 132.636 103.58C134.233 103.58 134.983 105 134.983 106.67C134.983 108.347 134.233 109.75 132.636 109.75ZM145.135 104.403C144.783 103.045 143.72 102.159 141.834 102.159C139.862 102.159 138.464 103.199 138.464 104.744C138.464 105.983 139.214 106.807 140.851 107.17L142.328 107.494C143.169 107.682 143.561 108.057 143.561 108.602C143.561 109.278 142.839 109.807 141.726 109.807C140.709 109.807 140.055 109.369 139.851 108.511L138.209 108.761C138.493 110.307 139.777 111.176 141.737 111.176C143.845 111.176 145.305 110.057 145.305 108.477C145.305 107.244 144.521 106.483 142.919 106.114L141.533 105.795C140.572 105.568 140.158 105.244 140.163 104.653C140.158 103.983 140.885 103.506 141.851 103.506C142.908 103.506 143.396 104.091 143.595 104.676L145.135 104.403ZM147.173 111H148.872V102.273H147.173V111ZM148.031 100.926C148.616 100.926 149.105 100.472 149.105 99.9148C149.105 99.358 148.616 98.8977 148.031 98.8977C147.44 98.8977 146.957 99.358 146.957 99.9148C146.957 100.472 147.44 100.926 148.031 100.926ZM155.232 102.273H153.442V100.182H151.743V102.273H150.464V103.636H151.743V108.79C151.737 110.375 152.947 111.142 154.288 111.114C154.828 111.108 155.192 111.006 155.391 110.932L155.084 109.528C154.97 109.551 154.76 109.602 154.487 109.602C153.936 109.602 153.442 109.42 153.442 108.438V103.636H155.232V102.273ZM161.482 111H163.237V106.909H165.624C168.322 106.909 169.658 105.278 169.658 103.131C169.658 100.989 168.334 99.3636 165.629 99.3636H161.482V111ZM163.237 105.42V100.869H165.442C167.18 100.869 167.891 101.812 167.891 103.131C167.891 104.449 167.18 105.42 165.464 105.42H163.237ZM174.041 111.193C175.484 111.193 176.297 110.46 176.621 109.807H176.689V111H178.348V105.205C178.348 102.665 176.348 102.159 174.962 102.159C173.382 102.159 171.928 102.795 171.359 104.386L172.956 104.75C173.206 104.131 173.842 103.534 174.984 103.534C176.081 103.534 176.643 104.108 176.643 105.097V105.136C176.643 105.756 176.007 105.744 174.439 105.926C172.786 106.119 171.092 106.551 171.092 108.534C171.092 110.25 172.382 111.193 174.041 111.193ZM174.411 109.83C173.45 109.83 172.757 109.398 172.757 108.557C172.757 107.648 173.564 107.324 174.547 107.193C175.098 107.119 176.405 106.972 176.649 106.727V107.852C176.649 108.886 175.825 109.83 174.411 109.83ZM181.372 114.273C182.776 114.273 183.662 113.54 184.168 112.165L187.776 102.29L185.94 102.273L183.73 109.045H183.639L181.429 102.273H179.611L182.804 111.114L182.594 111.693C182.162 112.852 181.554 112.949 180.622 112.693L180.213 114.085C180.418 114.176 180.861 114.273 181.372 114.273ZM189.376 114.273H191.075V109.642H191.178C191.484 110.199 192.109 111.17 193.7 111.17C195.814 111.17 197.348 109.477 197.348 106.653C197.348 103.824 195.791 102.159 193.683 102.159C192.064 102.159 191.479 103.148 191.178 103.688H191.036V102.273H189.376V114.273ZM191.041 106.636C191.041 104.812 191.837 103.602 193.32 103.602C194.859 103.602 195.632 104.903 195.632 106.636C195.632 108.386 194.837 109.722 193.32 109.722C191.859 109.722 191.041 108.472 191.041 106.636ZM201.791 111.193C203.234 111.193 204.047 110.46 204.371 109.807H204.439V111H206.098V105.205C206.098 102.665 204.098 102.159 202.712 102.159C201.132 102.159 199.678 102.795 199.109 104.386L200.706 104.75C200.956 104.131 201.592 103.534 202.734 103.534C203.831 103.534 204.393 104.108 204.393 105.097V105.136C204.393 105.756 203.757 105.744 202.189 105.926C200.536 106.119 198.842 106.551 198.842 108.534C198.842 110.25 200.132 111.193 201.791 111.193ZM202.161 109.83C201.2 109.83 200.507 109.398 200.507 108.557C200.507 107.648 201.314 107.324 202.297 107.193C202.848 107.119 204.155 106.972 204.399 106.727V107.852C204.399 108.886 203.575 109.83 202.161 109.83ZM210.06 99.3636H208.361V111H210.06V99.3636Z" fill="#232323"/>
<path d="M98.1293 136H105.011V134.828H99.9403V134.743L102.391 132.122C104.266 130.114 104.82 129.176 104.82 127.967C104.82 126.284 103.456 124.942 101.538 124.942C99.6261 124.942 98.1719 126.241 98.1719 128.159H99.429C99.429 126.918 100.233 126.092 101.496 126.092C102.678 126.092 103.584 126.817 103.584 127.967C103.584 128.974 102.993 129.72 101.73 131.099L98.1293 135.041V136ZM110.62 136.149C112.698 136.149 114.221 134.615 114.221 132.527C114.221 130.412 112.751 128.862 110.748 128.862C110.013 128.862 109.299 129.123 108.852 129.48H108.788L109.172 126.263H113.731V125.091H108.064L107.403 130.46L108.639 130.609C109.092 130.284 109.864 130.05 110.535 130.055C111.925 130.066 112.943 131.121 112.943 132.548C112.943 133.949 111.963 134.977 110.62 134.977C109.502 134.977 108.612 134.258 108.511 133.273H107.233C107.312 134.935 108.745 136.149 110.62 136.149ZM124.924 125.091V132.889C124.924 134.248 124.274 134.977 123.134 134.977C122.095 134.977 121.344 134.37 121.344 133.443H120.045C120.045 135.121 121.344 136.149 123.134 136.149C125.03 136.149 126.245 134.983 126.245 132.889V125.091H124.924ZM131.13 136.192C132.557 136.192 133.303 135.425 133.559 134.892H133.622V136H134.88V130.609C134.88 128.01 132.898 127.712 131.854 127.712C130.618 127.712 129.212 128.138 128.573 129.629L129.766 130.055C130.043 129.459 130.698 128.82 131.897 128.82C133.052 128.82 133.622 129.432 133.622 130.482V130.524C133.622 131.131 133.005 131.078 131.513 131.27C129.995 131.467 128.338 131.803 128.338 133.678C128.338 135.276 129.574 136.192 131.13 136.192ZM131.321 135.062C130.32 135.062 129.595 134.615 129.595 133.741C129.595 132.783 130.469 132.484 131.449 132.357C131.982 132.293 133.409 132.143 133.622 131.888V133.038C133.622 134.061 132.813 135.062 131.321 135.062ZM138.431 131.078C138.431 129.651 139.315 128.841 140.519 128.841C141.686 128.841 142.394 129.603 142.394 130.886V136H143.651V130.801C143.651 128.713 142.538 127.712 140.881 127.712C139.646 127.712 138.879 128.266 138.495 129.097H138.388V127.818H137.174V136H138.431V131.078ZM151.105 132.655C151.105 134.189 149.933 134.892 148.995 134.892C147.951 134.892 147.206 134.125 147.206 132.932V127.818H145.948V133.017C145.948 135.105 147.056 136.107 148.59 136.107C149.826 136.107 150.636 135.446 151.019 134.615H151.105V136H152.362V127.818H151.105V132.655ZM157.072 136.192C158.499 136.192 159.245 135.425 159.501 134.892H159.565V136H160.822V130.609C160.822 128.01 158.84 127.712 157.796 127.712C156.561 127.712 155.154 128.138 154.515 129.629L155.708 130.055C155.985 129.459 156.64 128.82 157.839 128.82C158.995 128.82 159.565 129.432 159.565 130.482V130.524C159.565 131.131 158.947 131.078 157.455 131.27C155.937 131.467 154.281 131.803 154.281 133.678C154.281 135.276 155.517 136.192 157.072 136.192ZM157.264 135.062C156.262 135.062 155.538 134.615 155.538 133.741C155.538 132.783 156.411 132.484 157.392 132.357C157.924 132.293 159.352 132.143 159.565 131.888V133.038C159.565 134.061 158.755 135.062 157.264 135.062ZM163.116 136H164.373V130.822C164.373 129.714 165.247 128.905 166.44 128.905C166.776 128.905 167.122 128.969 167.207 128.99V127.712C167.063 127.701 166.733 127.69 166.547 127.69C165.567 127.69 164.714 128.244 164.416 129.054H164.331V127.818H163.116V136ZM169.756 139.068C170.891 139.068 171.69 138.466 172.164 137.193L175.647 127.839L174.273 127.818L172.015 134.338H171.929L169.671 127.818H168.307L171.333 136.043L171.098 136.682C170.64 137.928 170.076 138.045 169.16 137.811L168.84 138.919C168.968 138.983 169.33 139.068 169.756 139.068ZM181.508 136H188.39V134.828H183.319V134.743L185.77 132.122C187.645 130.114 188.199 129.176 188.199 127.967C188.199 126.284 186.835 124.942 184.917 124.942C183.005 124.942 181.551 126.241 181.551 128.159H182.808C182.808 126.918 183.612 126.092 184.875 126.092C186.057 126.092 186.963 126.817 186.963 127.967C186.963 128.974 186.371 129.72 185.109 131.099L181.508 135.041V136ZM194.148 136.149C196.556 136.149 197.941 134.109 197.941 130.545C197.941 127.009 196.535 124.942 194.148 124.942C191.762 124.942 190.356 127.009 190.356 130.545C190.356 134.109 191.741 136.149 194.148 136.149ZM194.148 134.977C192.561 134.977 191.634 133.385 191.634 130.545C191.634 127.712 192.572 126.092 194.148 126.092C195.725 126.092 196.663 127.712 196.663 130.545C196.663 133.385 195.736 134.977 194.148 134.977ZM199.965 136H206.847V134.828H201.776V134.743L204.227 132.122C206.102 130.114 206.656 129.176 206.656 127.967C206.656 126.284 205.292 124.942 203.374 124.942C201.462 124.942 200.008 126.241 200.008 128.159H201.265C201.265 126.918 202.069 126.092 203.332 126.092C204.514 126.092 205.42 126.817 205.42 127.967C205.42 128.974 204.828 129.72 203.566 131.099L199.965 135.041V136ZM212.882 125.091H211.561L208.834 126.902V128.244L211.498 126.476H211.561V136H212.882V125.091Z" fill="#718EBF"/>
<path d="M264.797 121.045H266.325V117.966H269.405V116.438H266.325V113.364H264.797V116.438H261.723V117.966H264.797V121.045ZM275.516 124.455H276.584L276.589 123.176C278.993 123 280.368 121.625 280.368 119.784C280.368 117.688 278.499 116.875 277.021 116.511L276.607 116.403L276.618 112.756C277.68 112.898 278.408 113.489 278.516 114.42H280.209C280.163 112.688 278.732 111.392 276.624 111.222L276.629 109.909H275.561L275.555 111.233C273.516 111.438 272.021 112.71 272.021 114.545C272.021 116.165 273.18 117.114 275.05 117.619L275.538 117.75L275.527 121.619C274.419 121.483 273.561 120.881 273.47 119.784H271.709C271.817 121.744 273.232 123.006 275.521 123.176L275.516 124.455ZM276.595 121.619L276.607 118.045C277.76 118.364 278.629 118.784 278.629 119.767C278.629 120.761 277.8 121.46 276.595 121.619ZM275.544 116.119C274.697 115.869 273.766 115.42 273.771 114.443C273.771 113.591 274.447 112.926 275.55 112.761L275.544 116.119ZM282.307 123H289.966V121.494H284.727V121.409L287.04 118.989C289.17 116.835 289.778 115.807 289.778 114.506C289.778 112.636 288.256 111.205 286.062 111.205C283.886 111.205 282.295 112.614 282.295 114.739H283.972C283.966 113.489 284.773 112.67 286.028 112.67C287.21 112.67 288.108 113.398 288.108 114.557C288.108 115.585 287.494 116.324 286.244 117.648L282.307 121.727V123ZM294.352 121.409H292.716L292.659 122.045C292.528 123.585 292.165 125.136 292.011 125.841H293.216C293.489 125.097 294.091 123.392 294.267 122.028L294.352 121.409ZM300.382 123.159C302.723 123.159 304.393 121.506 304.388 119.239C304.393 116.989 302.825 115.352 300.706 115.352C299.842 115.352 299.041 115.682 298.587 116.125H298.518L298.888 112.869H303.825V111.364H297.428L296.774 117.227L298.382 117.466C298.82 117.074 299.604 116.807 300.308 116.807C301.689 116.818 302.689 117.852 302.689 119.273C302.689 120.67 301.717 121.682 300.382 121.682C299.257 121.682 298.365 120.966 298.274 119.966H296.57C296.638 121.818 298.246 123.159 300.382 123.159ZM310.514 123.193C313.202 123.193 314.776 121 314.776 117.188C314.776 113.403 313.179 111.205 310.514 111.205C307.844 111.205 306.253 113.398 306.247 117.188C306.247 120.994 307.821 123.188 310.514 123.193ZM310.514 121.676C308.94 121.676 307.991 120.097 307.991 117.188C307.997 114.29 308.946 112.693 310.514 112.693C312.077 112.693 313.031 114.29 313.031 117.188C313.031 120.097 312.082 121.676 310.514 121.676ZM320.842 123.193C323.53 123.193 325.104 121 325.104 117.188C325.104 113.403 323.507 111.205 320.842 111.205C318.172 111.205 316.581 113.398 316.575 117.188C316.575 120.994 318.149 123.188 320.842 123.193ZM320.842 121.676C319.268 121.676 318.32 120.097 318.32 117.188C318.325 114.29 319.274 112.693 320.842 112.693C322.405 112.693 323.359 114.29 323.359 117.188C323.359 120.097 322.411 121.676 320.842 121.676Z" fill="#41D4A8"/>
<circle cx="52.5" cy="117.5" r="27.5" fill="#E7EDFF"/>
<path d="M61.995 112.382C61.9812 110.852 61.3642 109.389 60.278 108.311C59.1918 107.233 57.7241 106.627 56.1938 106.625H47.75C47.5403 106.622 47.3366 106.695 47.176 106.83C47.0154 106.965 46.9086 107.153 46.875 107.36L43.8825 126.129C43.8638 126.253 43.8721 126.38 43.9068 126.501C43.9416 126.621 44.0019 126.733 44.0838 126.829C44.1651 126.926 44.2667 127.005 44.3815 127.06C44.4964 127.114 44.6217 127.143 44.7488 127.144H48.3625L48.17 128.36C48.1496 128.486 48.157 128.615 48.1917 128.738C48.2264 128.861 48.2876 128.975 48.371 129.071C48.4544 129.168 48.5579 129.245 48.6744 129.298C48.7908 129.35 48.9173 129.377 49.045 129.375H53.1138C53.3222 129.378 53.5249 129.306 53.6853 129.173C53.8457 129.04 53.9533 128.854 53.9888 128.649L54.8638 123.302H57.62C59.3451 123.296 60.9974 122.606 62.2156 121.384C63.4338 120.163 64.119 118.509 64.1213 116.784V116.539C64.1204 115.727 63.9272 114.927 63.5576 114.205C63.1881 113.483 62.6525 112.858 61.995 112.382ZM48.4938 108.375H56.1938C57.1118 108.378 58.0017 108.692 58.7184 109.265C59.4351 109.839 59.9362 110.639 60.14 111.534C59.7615 111.445 59.3738 111.401 58.985 111.402H51.6875C51.4778 111.4 51.2741 111.472 51.1135 111.607C50.9528 111.742 50.8461 111.93 50.8125 112.137L50.2963 115.375C50.2591 115.607 50.3157 115.844 50.4535 116.035C50.5914 116.225 50.7992 116.353 51.0313 116.39C51.2633 116.427 51.5006 116.371 51.691 116.233C51.8813 116.095 52.0091 115.887 52.0463 115.655L52.4488 113.135H59.0025C59.422 113.137 59.8373 113.217 60.2275 113.371C60.0612 114.741 59.4003 116.003 58.3691 116.92C57.3379 117.836 56.0073 118.345 54.6275 118.35H50.5675C50.3591 118.347 50.1564 118.418 49.996 118.552C49.8355 118.685 49.7279 118.871 49.6925 119.076L48.625 125.394H45.7725L48.4938 108.375ZM62.3713 116.784C62.369 118.045 61.8682 119.254 60.9782 120.147C60.0881 121.04 58.881 121.546 57.62 121.552H54.12C53.9116 121.549 53.7089 121.621 53.5485 121.754C53.388 121.887 53.2804 122.073 53.245 122.279L52.37 127.625H50.06L50.2525 126.409L51.3025 120.117H54.61C56.2435 120.113 57.8296 119.568 59.121 118.567C60.4125 117.567 61.3368 116.168 61.75 114.587C62.1561 115.157 62.3734 115.839 62.3713 116.539V116.784Z" fill="#396AFF"/>
<path d="M102.045 46C105.591 46 107.642 43.8011 107.642 40.1648C107.642 36.5455 105.591 34.3636 102.165 34.3636H98.2784V46H102.045ZM100.034 44.4659V35.8977H102.057C104.602 35.8977 105.915 37.4205 105.915 40.1648C105.915 42.9205 104.602 44.4659 101.949 44.4659H100.034ZM113.45 46.1761C115.354 46.1761 116.7 45.2386 117.087 43.8182L115.479 43.5284C115.172 44.3523 114.433 44.7727 113.467 44.7727C112.013 44.7727 111.036 43.8295 110.99 42.1477H117.195V41.5455C117.195 38.392 115.308 37.1591 113.331 37.1591C110.899 37.1591 109.297 39.0114 109.297 41.6932C109.297 44.4034 110.876 46.1761 113.45 46.1761ZM110.996 40.875C111.064 39.6364 111.962 38.5625 113.342 38.5625C114.661 38.5625 115.524 39.5398 115.53 40.875H110.996ZM119.08 49.2727H120.778V44.642H120.881C121.188 45.1989 121.812 46.1705 123.403 46.1705C125.517 46.1705 127.051 44.4773 127.051 41.6534C127.051 38.8239 125.494 37.1591 123.386 37.1591C121.767 37.1591 121.182 38.1477 120.881 38.6875H120.739V37.2727H119.08V49.2727ZM120.744 41.6364C120.744 39.8125 121.54 38.6023 123.023 38.6023C124.562 38.6023 125.335 39.9034 125.335 41.6364C125.335 43.3864 124.54 44.7216 123.023 44.7216C121.562 44.7216 120.744 43.4716 120.744 41.6364ZM132.631 46.1761C135.091 46.1761 136.699 44.375 136.699 41.6761C136.699 38.9602 135.091 37.1591 132.631 37.1591C130.17 37.1591 128.562 38.9602 128.562 41.6761C128.562 44.375 130.17 46.1761 132.631 46.1761ZM132.636 44.75C131.028 44.75 130.278 43.3466 130.278 41.6705C130.278 40 131.028 38.5795 132.636 38.5795C134.233 38.5795 134.983 40 134.983 41.6705C134.983 43.3466 134.233 44.75 132.636 44.75ZM145.135 39.4034C144.783 38.0455 143.72 37.1591 141.834 37.1591C139.862 37.1591 138.464 38.1989 138.464 39.7443C138.464 40.983 139.214 41.8068 140.851 42.1705L142.328 42.4943C143.169 42.6818 143.561 43.0568 143.561 43.6023C143.561 44.2784 142.839 44.8068 141.726 44.8068C140.709 44.8068 140.055 44.3693 139.851 43.5114L138.209 43.7614C138.493 45.3068 139.777 46.1761 141.737 46.1761C143.845 46.1761 145.305 45.0568 145.305 43.4773C145.305 42.2443 144.521 41.483 142.919 41.1136L141.533 40.7955C140.572 40.5682 140.158 40.2443 140.163 39.6534C140.158 38.983 140.885 38.5057 141.851 38.5057C142.908 38.5057 143.396 39.0909 143.595 39.6761L145.135 39.4034ZM147.173 46H148.872V37.2727H147.173V46ZM148.031 35.9261C148.616 35.9261 149.105 35.4716 149.105 34.9148C149.105 34.358 148.616 33.8977 148.031 33.8977C147.44 33.8977 146.957 34.358 146.957 34.9148C146.957 35.4716 147.44 35.9261 148.031 35.9261ZM155.232 37.2727H153.442V35.1818H151.743V37.2727H150.464V38.6364H151.743V43.7898C151.737 45.375 152.947 46.142 154.288 46.1136C154.828 46.108 155.192 46.0057 155.391 45.9318L155.084 44.5284C154.97 44.5511 154.76 44.6023 154.487 44.6023C153.936 44.6023 153.442 44.4205 153.442 43.4375V38.6364H155.232V37.2727ZM165.499 37.2727H163.618V36.4886C163.618 35.7159 163.936 35.2955 164.766 35.2955C165.118 35.2955 165.368 35.375 165.527 35.4261L165.925 34.0511C165.686 33.9602 165.192 33.8182 164.504 33.8182C163.124 33.8182 161.913 34.625 161.913 36.2614V37.2727H160.567V38.6364H161.913V46H163.618V38.6364H165.499V37.2727ZM167.251 46H168.95V40.6705C168.95 39.5284 169.831 38.7045 171.036 38.7045C171.388 38.7045 171.786 38.767 171.922 38.8068V37.1818C171.751 37.1591 171.416 37.142 171.2 37.142C170.178 37.142 169.303 37.7216 168.984 38.6591H168.893V37.2727H167.251V46ZM176.756 46.1761C179.216 46.1761 180.824 44.375 180.824 41.6761C180.824 38.9602 179.216 37.1591 176.756 37.1591C174.295 37.1591 172.688 38.9602 172.688 41.6761C172.688 44.375 174.295 46.1761 176.756 46.1761ZM176.761 44.75C175.153 44.75 174.403 43.3466 174.403 41.6705C174.403 40 175.153 38.5795 176.761 38.5795C178.358 38.5795 179.108 40 179.108 41.6705C179.108 43.3466 178.358 44.75 176.761 44.75ZM182.72 46H184.419V40.6193C184.419 39.4432 185.243 38.625 186.209 38.625C187.152 38.625 187.805 39.25 187.805 40.1989V46H189.499V40.4375C189.499 39.3864 190.141 38.625 191.249 38.625C192.146 38.625 192.885 39.125 192.885 40.3068V46H194.584V40.1477C194.584 38.1534 193.47 37.1591 191.891 37.1591C190.635 37.1591 189.692 37.7614 189.271 38.6932H189.18C188.8 37.7386 187.999 37.1591 186.834 37.1591C185.68 37.1591 184.822 37.733 184.459 38.6932H184.351V37.2727H182.72V46ZM201.095 46H202.794V40.6193C202.794 39.4432 203.618 38.625 204.584 38.625C205.527 38.625 206.18 39.25 206.18 40.1989V46H207.874V40.4375C207.874 39.3864 208.516 38.625 209.624 38.625C210.521 38.625 211.26 39.125 211.26 40.3068V46H212.959V40.1477C212.959 38.1534 211.845 37.1591 210.266 37.1591C209.01 37.1591 208.067 37.7614 207.646 38.6932H207.555C207.175 37.7386 206.374 37.1591 205.209 37.1591C204.055 37.1591 203.197 37.733 202.834 38.6932H202.726V37.2727H201.095V46ZM215.997 49.2727C217.401 49.2727 218.287 48.5398 218.793 47.1648L222.401 37.2898L220.565 37.2727L218.355 44.0455H218.264L216.054 37.2727H214.236L217.429 46.1136L217.219 46.6932C216.787 47.8523 216.179 47.9489 215.247 47.6932L214.838 49.0852C215.043 49.1761 215.486 49.2727 215.997 49.2727ZM238.037 38.1477C237.639 35.6591 235.69 34.2045 233.23 34.2045C230.219 34.2045 227.997 36.4602 227.997 40.1818C227.997 43.9034 230.207 46.1591 233.23 46.1591C235.787 46.1591 237.656 44.5568 238.037 42.2557L236.264 42.25C235.963 43.7386 234.713 44.5568 233.241 44.5568C231.247 44.5568 229.741 43.0284 229.741 40.1818C229.741 37.358 231.241 35.8068 233.247 35.8068C234.73 35.8068 235.974 36.642 236.264 38.1477H238.037ZM242.541 46.1932C243.984 46.1932 244.797 45.4602 245.121 44.8068H245.189V46H246.848V40.2045C246.848 37.6648 244.848 37.1591 243.462 37.1591C241.882 37.1591 240.428 37.7955 239.859 39.3864L241.456 39.75C241.706 39.1307 242.342 38.5341 243.484 38.5341C244.581 38.5341 245.143 39.108 245.143 40.0966V40.1364C245.143 40.7557 244.507 40.7443 242.939 40.9261C241.286 41.1193 239.592 41.5511 239.592 43.5341C239.592 45.25 240.882 46.1932 242.541 46.1932ZM242.911 44.8295C241.95 44.8295 241.257 44.3977 241.257 43.5568C241.257 42.6477 242.064 42.3239 243.047 42.1932C243.598 42.1193 244.905 41.9716 245.149 41.7273V42.8523C245.149 43.8864 244.325 44.8295 242.911 44.8295ZM249.111 46H250.81V40.6705C250.81 39.5284 251.69 38.7045 252.895 38.7045C253.247 38.7045 253.645 38.767 253.781 38.8068V37.1818C253.611 37.1591 253.276 37.142 253.06 37.142C252.037 37.142 251.162 37.7216 250.844 38.6591H250.753V37.2727H249.111V46ZM258.206 46.1705C259.797 46.1705 260.422 45.1989 260.729 44.642H260.871V46H262.53V34.3636H260.831V38.6875H260.729C260.422 38.1477 259.842 37.1591 258.217 37.1591C256.109 37.1591 254.558 38.8239 254.558 41.6534C254.558 44.4773 256.087 46.1705 258.206 46.1705ZM258.581 44.7216C257.064 44.7216 256.274 43.3864 256.274 41.6364C256.274 39.9034 257.047 38.6023 258.581 38.6023C260.064 38.6023 260.859 39.8125 260.859 41.6364C260.859 43.4716 260.047 44.7216 258.581 44.7216Z" fill="#232323"/>
<path d="M98.1293 71H105.011V69.8281H99.9403V69.7429L102.391 67.1222C104.266 65.114 104.82 64.1765 104.82 62.9673C104.82 61.2841 103.456 59.9418 101.538 59.9418C99.6261 59.9418 98.1719 61.2415 98.1719 63.1591H99.429C99.429 61.918 100.233 61.0923 101.496 61.0923C102.678 61.0923 103.584 61.8168 103.584 62.9673C103.584 63.9741 102.993 64.7198 101.73 66.0994L98.1293 70.0412V71ZM110.706 71.1491C112.884 71.1491 114.402 69.8761 114.413 68.1023C114.402 66.7227 113.481 65.5508 112.304 65.3324V65.2685C113.326 65.0021 113.998 64.0007 114.008 62.8395C113.998 61.1776 112.602 59.9418 110.706 59.9418C108.788 59.9418 107.392 61.1776 107.403 62.8395C107.392 64.0007 108.064 65.0021 109.108 65.2685V65.3324C107.909 65.5508 106.988 66.7227 106.998 68.1023C106.988 69.8761 108.506 71.1491 110.706 71.1491ZM110.706 69.9773C109.209 69.9773 108.287 69.2102 108.298 68.0384C108.287 66.8079 109.305 65.929 110.706 65.929C112.085 65.929 113.103 66.8079 113.113 68.0384C113.103 69.2102 112.181 69.9773 110.706 69.9773ZM110.706 64.7997C109.512 64.7997 108.671 64.054 108.681 62.9247C108.671 61.8168 109.48 61.0923 110.706 61.0923C111.909 61.0923 112.719 61.8168 112.73 62.9247C112.719 64.054 111.877 64.7997 110.706 64.7997ZM125.041 60.0909V67.8892C125.041 69.2475 124.391 69.9773 123.251 69.9773C122.213 69.9773 121.462 69.37 121.462 68.4432H120.162C120.162 70.1211 121.462 71.1491 123.251 71.1491C125.148 71.1491 126.362 69.9826 126.362 67.8892V60.0909H125.041ZM131.247 71.1918C132.674 71.1918 133.42 70.4247 133.676 69.892H133.74V71H134.997V65.6094C134.997 63.0099 133.015 62.7116 131.971 62.7116C130.735 62.7116 129.329 63.1378 128.69 64.6293L129.883 65.0554C130.16 64.4588 130.815 63.8196 132.014 63.8196C133.17 63.8196 133.74 64.4322 133.74 65.4815V65.5241C133.74 66.1314 133.122 66.0781 131.63 66.2699C130.112 66.467 128.456 66.8026 128.456 68.6776C128.456 70.2756 129.691 71.1918 131.247 71.1918ZM131.438 70.0625C130.437 70.0625 129.713 69.6151 129.713 68.7415C129.713 67.7827 130.586 67.4844 131.566 67.3565C132.099 67.2926 133.527 67.1435 133.74 66.8878V68.0384C133.74 69.0611 132.93 70.0625 131.438 70.0625ZM138.548 66.0781C138.548 64.6506 139.433 63.8409 140.636 63.8409C141.803 63.8409 142.511 64.6026 142.511 65.8864V71H143.768V65.8011C143.768 63.7131 142.655 62.7116 140.999 62.7116C139.763 62.7116 138.996 63.2656 138.612 64.0966H138.506V62.8182H137.291V71H138.548V66.0781ZM151.222 67.6548C151.222 69.1889 150.05 69.892 149.112 69.892C148.068 69.892 147.323 69.125 147.323 67.9318V62.8182H146.066V68.017C146.066 70.1051 147.174 71.1065 148.708 71.1065C149.943 71.1065 150.753 70.446 151.137 69.6151H151.222V71H152.479V62.8182H151.222V67.6548ZM157.189 71.1918C158.617 71.1918 159.362 70.4247 159.618 69.892H159.682V71H160.939V65.6094C160.939 63.0099 158.958 62.7116 157.914 62.7116C156.678 62.7116 155.271 63.1378 154.632 64.6293L155.825 65.0554C156.102 64.4588 156.758 63.8196 157.956 63.8196C159.112 63.8196 159.682 64.4322 159.682 65.4815V65.5241C159.682 66.1314 159.064 66.0781 157.573 66.2699C156.055 66.467 154.398 66.8026 154.398 68.6776C154.398 70.2756 155.634 71.1918 157.189 71.1918ZM157.381 70.0625C156.379 70.0625 155.655 69.6151 155.655 68.7415C155.655 67.7827 156.529 67.4844 157.509 67.3565C158.041 67.2926 159.469 67.1435 159.682 66.8878V68.0384C159.682 69.0611 158.872 70.0625 157.381 70.0625ZM163.234 71H164.491V65.8224C164.491 64.7145 165.364 63.9048 166.557 63.9048C166.893 63.9048 167.239 63.9688 167.324 63.9901V62.7116C167.181 62.701 166.85 62.6903 166.664 62.6903C165.684 62.6903 164.832 63.2443 164.533 64.054H164.448V62.8182H163.234V71ZM169.873 74.0682C171.008 74.0682 171.807 73.4663 172.281 72.1932L175.765 62.8395L174.39 62.8182L172.132 69.3381H172.047L169.788 62.8182H168.424L171.45 71.0426L171.216 71.6818C170.758 72.9283 170.193 73.0455 169.277 72.8111L168.957 73.919C169.085 73.983 169.447 74.0682 169.873 74.0682ZM181.625 71H188.507V69.8281H183.436V69.7429L185.887 67.1222C187.762 65.114 188.316 64.1765 188.316 62.9673C188.316 61.2841 186.952 59.9418 185.034 59.9418C183.122 59.9418 181.668 61.2415 181.668 63.1591H182.925C182.925 61.918 183.729 61.0923 184.992 61.0923C186.174 61.0923 187.08 61.8168 187.08 62.9673C187.08 63.9741 186.489 64.7198 185.226 66.0994L181.625 70.0412V71ZM194.266 71.1491C196.673 71.1491 198.058 69.109 198.058 65.5455C198.058 62.0085 196.652 59.9418 194.266 59.9418C191.879 59.9418 190.473 62.0085 190.473 65.5455C190.473 69.109 191.858 71.1491 194.266 71.1491ZM194.266 69.9773C192.678 69.9773 191.751 68.3846 191.751 65.5455C191.751 62.7116 192.689 61.0923 194.266 61.0923C195.842 61.0923 196.78 62.7116 196.78 65.5455C196.78 68.3846 195.853 69.9773 194.266 69.9773ZM200.082 71H206.964V69.8281H201.893V69.7429L204.344 67.1222C206.219 65.114 206.773 64.1765 206.773 62.9673C206.773 61.2841 205.409 59.9418 203.491 59.9418C201.579 59.9418 200.125 61.2415 200.125 63.1591H201.382C201.382 61.918 202.186 61.0923 203.449 61.0923C204.631 61.0923 205.537 61.8168 205.537 62.9673C205.537 63.9741 204.946 64.7198 203.683 66.0994L200.082 70.0412V71ZM213 60.0909H211.679L208.951 61.902V63.2443L211.615 61.4759H211.679V71H213V60.0909Z" fill="#718EBF"/>
<path d="M284.222 51.4489H279.062V52.9205H284.222V51.4489ZM289.969 59.4545H291.037L291.043 58.1761C293.446 58 294.821 56.625 294.821 54.7841C294.821 52.6875 292.952 51.875 291.474 51.5114L291.06 51.4034L291.071 47.7557C292.134 47.8977 292.861 48.4886 292.969 49.4205H294.662C294.616 47.6875 293.185 46.392 291.077 46.2216L291.082 44.9091H290.014L290.009 46.233C287.969 46.4375 286.474 47.7102 286.474 49.5455C286.474 51.1648 287.634 52.1136 289.503 52.6193L289.991 52.75L289.98 56.6193C288.872 56.483 288.014 55.8807 287.923 54.7841H286.162C286.27 56.7443 287.685 58.0057 289.974 58.1761L289.969 59.4545ZM291.048 56.6193L291.06 53.0455C292.213 53.3636 293.082 53.7841 293.082 54.767C293.082 55.7614 292.253 56.4602 291.048 56.6193ZM289.997 51.1193C289.151 50.8693 288.219 50.4205 288.224 49.4432C288.224 48.5909 288.901 47.9261 290.003 47.7614L289.997 51.1193ZM300.692 58.1591C303.112 58.1591 304.822 56.7841 304.834 54.8977C304.822 53.4318 303.794 52.1989 302.493 51.9659V51.8977C303.624 51.625 304.391 50.5625 304.402 49.3068C304.391 47.5284 302.822 46.2045 300.692 46.2045C298.538 46.2045 296.97 47.5284 296.982 49.3068C296.97 50.5568 297.737 51.625 298.891 51.8977V51.9659C297.567 52.1989 296.538 53.4318 296.55 54.8977C296.538 56.7841 298.249 58.1591 300.692 58.1591ZM300.692 56.7216C299.237 56.7216 298.317 55.9489 298.328 54.7841C298.317 53.5739 299.317 52.7102 300.692 52.7102C302.044 52.7102 303.044 53.5739 303.055 54.7841C303.044 55.9489 302.129 56.7216 300.692 56.7216ZM300.692 51.3068C299.516 51.3068 298.68 50.5625 298.692 49.4545C298.68 48.3636 299.487 47.642 300.692 47.642C301.874 47.642 302.68 48.3636 302.692 49.4545C302.68 50.5625 301.851 51.3068 300.692 51.3068ZM310.71 58.1591C313.051 58.1591 314.722 56.5057 314.716 54.2386C314.722 51.9886 313.153 50.3523 311.034 50.3523C310.17 50.3523 309.369 50.6818 308.915 51.125H308.847L309.216 47.8693H314.153V46.3636H307.756L307.102 52.2273L308.71 52.4659C309.148 52.0739 309.932 51.8068 310.636 51.8068C312.017 51.8182 313.017 52.8523 313.017 54.2727C313.017 55.6705 312.045 56.6818 310.71 56.6818C309.585 56.6818 308.693 55.9659 308.602 54.9659H306.898C306.966 56.8182 308.574 58.1591 310.71 58.1591ZM320.842 58.1932C323.53 58.1932 325.104 56 325.104 52.1875C325.104 48.4034 323.507 46.2045 320.842 46.2045C318.172 46.2045 316.581 48.3977 316.575 52.1875C316.575 55.9943 318.149 58.1875 320.842 58.1932ZM320.842 56.6761C319.268 56.6761 318.32 55.0966 318.32 52.1875C318.325 49.2898 319.274 47.6932 320.842 47.6932C322.405 47.6932 323.359 49.2898 323.359 52.1875C323.359 55.0966 322.411 56.6761 320.842 56.6761Z" fill="#FF4B4A"/>
<circle cx="52.5" cy="52.5" r="27.5" fill="#FFF5D9"/>
<path d="M57.6452 62.6094H44.6798C43.9859 62.6087 43.3206 62.3327 42.8299 61.842C42.3392 61.3513 42.0632 60.686 42.0625 59.992V52.2543C42.0632 51.5604 42.3392 50.8951 42.8299 50.4044C43.3206 49.9137 43.9859 49.6377 44.6798 49.637H57.6452C58.3391 49.6377 59.0044 49.9137 59.4951 50.4044C59.9858 50.8951 60.2618 51.5604 60.2625 52.2543V59.992C60.2618 60.686 59.9858 61.3513 59.4951 61.842C59.0044 62.3327 58.3391 62.6087 57.6452 62.6094ZM44.6798 51.2776C44.4209 51.2779 44.1726 51.3809 43.9895 51.564C43.8064 51.7471 43.7034 51.9954 43.7031 52.2543V59.992C43.7034 60.251 43.8064 60.4993 43.9895 60.6824C44.1726 60.8655 44.4209 60.9685 44.6798 60.9688H57.6452C57.9041 60.9685 58.1524 60.8655 58.3355 60.6824C58.5186 60.4993 58.6216 60.251 58.6219 59.992V52.2543C58.6216 51.9954 58.5186 51.7471 58.3355 51.564C58.1524 51.3809 57.9041 51.2779 57.6452 51.2776H44.6798Z" fill="#FFBB38"/>
<path d="M61.3212 58.1917H59.4422C59.2246 58.1917 59.016 58.1053 58.8621 57.9515C58.7083 57.7976 58.6219 57.589 58.6219 57.3714C58.6219 57.1538 58.7083 56.9452 58.8621 56.7914C59.016 56.6375 59.2246 56.5511 59.4422 56.5511H61.3212C61.58 56.5505 61.828 56.4474 62.0109 56.2643C62.1937 56.0812 62.2966 55.8331 62.2969 55.5744V47.8366C62.2967 47.5778 62.1939 47.3295 62.0111 47.1463C61.8282 46.9632 61.5801 46.86 61.3212 46.8594H48.3559C48.097 46.8597 47.8487 46.9627 47.6656 47.1458C47.4825 47.3289 47.3795 47.5771 47.3792 47.8361V50.4567C47.3792 50.6743 47.2928 50.8829 47.1389 51.0368C46.9851 51.1906 46.7765 51.277 46.5589 51.277C46.3413 51.277 46.1327 51.1906 45.9789 51.0368C45.825 50.8829 45.7386 50.6743 45.7386 50.4567V47.8366C45.7392 47.1426 46.0151 46.4772 46.5058 45.9863C46.9965 45.4955 47.6619 45.2195 48.3559 45.2188H61.3212C62.0151 45.2198 62.6802 45.496 63.1707 45.9867C63.6611 46.4775 63.9369 47.1428 63.9375 47.8366V55.5744C63.9368 56.2681 63.6609 56.9333 63.1705 57.4239C62.68 57.9146 62.015 58.1907 61.3212 58.1917Z" fill="#FFBB38"/>
<path d="M59.4422 56.7464H42.8828C42.6653 56.7464 42.4566 56.6599 42.3028 56.5061C42.1489 56.3523 42.0625 56.1436 42.0625 55.9261V53.1709C42.0625 52.9533 42.1489 52.7447 42.3028 52.5909C42.4566 52.437 42.6653 52.3506 42.8828 52.3506H59.4422C59.6597 52.3506 59.8684 52.437 60.0222 52.5909C60.1761 52.7447 60.2625 52.9533 60.2625 53.1709V55.9261C60.2625 56.1436 60.1761 56.3523 60.0222 56.5061C59.8684 56.6599 59.6597 56.7464 59.4422 56.7464ZM43.7031 55.1057H58.6219V53.9912H43.7031V55.1057Z" fill="#FFBB38"/>
<path d="M102.801 164.364V172.614C102.795 173.955 102.17 174.67 101.057 174.67C100.028 174.67 99.3125 174.057 99.3068 173.091H97.5625C97.5625 175.057 99.0398 176.159 101.011 176.159C103.148 176.159 104.545 174.852 104.551 172.614V164.364H102.801ZM110.732 176.176C112.635 176.176 113.982 175.239 114.368 173.818L112.76 173.528C112.453 174.352 111.714 174.773 110.749 174.773C109.294 174.773 108.317 173.83 108.271 172.148H114.476V171.545C114.476 168.392 112.589 167.159 110.612 167.159C108.18 167.159 106.578 169.011 106.578 171.693C106.578 174.403 108.158 176.176 110.732 176.176ZM108.277 170.875C108.345 169.636 109.243 168.562 110.624 168.562C111.942 168.562 112.805 169.54 112.811 170.875H108.277ZM116.361 176H118.06V170.619C118.06 169.443 118.884 168.625 119.849 168.625C120.793 168.625 121.446 169.25 121.446 170.199V176H123.139V170.438C123.139 169.386 123.781 168.625 124.889 168.625C125.787 168.625 126.526 169.125 126.526 170.307V176H128.224V170.148C128.224 168.153 127.111 167.159 125.531 167.159C124.276 167.159 123.332 167.761 122.912 168.693H122.821C122.44 167.739 121.639 167.159 120.474 167.159C119.321 167.159 118.463 167.733 118.099 168.693H117.991V167.273H116.361V176ZM130.501 176H132.2V167.273H130.501V176ZM131.359 165.926C131.945 165.926 132.433 165.472 132.433 164.915C132.433 164.358 131.945 163.898 131.359 163.898C130.768 163.898 130.286 164.358 130.286 164.915C130.286 165.472 130.768 165.926 131.359 165.926ZM141.135 176H142.908L145.357 167.284H145.447L147.896 176H149.663L152.896 164.364H151.044L148.783 173.381H148.675L146.317 164.364H144.487L142.129 173.375H142.021L139.754 164.364H137.908L141.135 176ZM154.361 176H156.06V167.273H154.361V176ZM155.219 165.926C155.804 165.926 156.293 165.472 156.293 164.915C156.293 164.358 155.804 163.898 155.219 163.898C154.628 163.898 154.145 164.358 154.145 164.915C154.145 165.472 154.628 165.926 155.219 165.926ZM160.044 164.364H158.345V176H160.044V164.364ZM168.869 169.403C168.517 168.045 167.455 167.159 165.568 167.159C163.597 167.159 162.199 168.199 162.199 169.744C162.199 170.983 162.949 171.807 164.585 172.17L166.062 172.494C166.903 172.682 167.295 173.057 167.295 173.602C167.295 174.278 166.574 174.807 165.46 174.807C164.443 174.807 163.79 174.369 163.585 173.511L161.943 173.761C162.227 175.307 163.511 176.176 165.472 176.176C167.58 176.176 169.04 175.057 169.04 173.477C169.04 172.244 168.256 171.483 166.653 171.114L165.267 170.795C164.307 170.568 163.892 170.244 163.898 169.653C163.892 168.983 164.619 168.506 165.585 168.506C166.642 168.506 167.131 169.091 167.33 169.676L168.869 169.403ZM174.584 176.176C177.044 176.176 178.652 174.375 178.652 171.676C178.652 168.96 177.044 167.159 174.584 167.159C172.124 167.159 170.516 168.96 170.516 171.676C170.516 174.375 172.124 176.176 174.584 176.176ZM174.589 174.75C172.982 174.75 172.232 173.347 172.232 171.67C172.232 170 172.982 168.58 174.589 168.58C176.186 168.58 176.936 170 176.936 171.67C176.936 173.347 176.186 174.75 174.589 174.75ZM182.247 170.818C182.247 169.426 183.099 168.631 184.281 168.631C185.435 168.631 186.134 169.386 186.134 170.653V176H187.832V170.449C187.832 168.29 186.645 167.159 184.861 167.159C183.548 167.159 182.69 167.767 182.287 168.693H182.179V167.273H180.548V176H182.247V170.818Z" fill="#232323"/>
<path d="M98.1293 201H105.011V199.828H99.9403V199.743L102.391 197.122C104.266 195.114 104.82 194.176 104.82 192.967C104.82 191.284 103.456 189.942 101.538 189.942C99.6261 189.942 98.1719 191.241 98.1719 193.159H99.429C99.429 191.918 100.233 191.092 101.496 191.092C102.678 191.092 103.584 191.817 103.584 192.967C103.584 193.974 102.993 194.72 101.73 196.099L98.1293 200.041V201ZM111.047 190.091H109.725L106.998 191.902V193.244L109.662 191.476H109.725V201H111.047V190.091ZM122.771 190.091V197.889C122.771 199.248 122.121 199.977 120.981 199.977C119.942 199.977 119.191 199.37 119.191 198.443H117.891C117.891 200.121 119.191 201.149 120.981 201.149C122.877 201.149 124.092 199.983 124.092 197.889V190.091H122.771ZM128.976 201.192C130.404 201.192 131.15 200.425 131.405 199.892H131.469V201H132.726V195.609C132.726 193.01 130.745 192.712 129.701 192.712C128.465 192.712 127.059 193.138 126.419 194.629L127.613 195.055C127.89 194.459 128.545 193.82 129.743 193.82C130.899 193.82 131.469 194.432 131.469 195.482V195.524C131.469 196.131 130.851 196.078 129.36 196.27C127.842 196.467 126.185 196.803 126.185 198.678C126.185 200.276 127.421 201.192 128.976 201.192ZM129.168 200.062C128.167 200.062 127.442 199.615 127.442 198.741C127.442 197.783 128.316 197.484 129.296 197.357C129.828 197.293 131.256 197.143 131.469 196.888V198.038C131.469 199.061 130.659 200.062 129.168 200.062ZM136.278 196.078C136.278 194.651 137.162 193.841 138.366 193.841C139.532 193.841 140.241 194.603 140.241 195.886V201H141.498V195.801C141.498 193.713 140.385 192.712 138.728 192.712C137.492 192.712 136.725 193.266 136.342 194.097H136.235V192.818H135.021V201H136.278V196.078ZM148.951 197.655C148.951 199.189 147.779 199.892 146.842 199.892C145.798 199.892 145.052 199.125 145.052 197.932V192.818H143.795V198.017C143.795 200.105 144.903 201.107 146.437 201.107C147.673 201.107 148.483 200.446 148.866 199.615H148.951V201H150.208V192.818H148.951V197.655ZM154.919 201.192C156.346 201.192 157.092 200.425 157.348 199.892H157.411V201H158.669V195.609C158.669 193.01 156.687 192.712 155.643 192.712C154.407 192.712 153.001 193.138 152.362 194.629L153.555 195.055C153.832 194.459 154.487 193.82 155.686 193.82C156.842 193.82 157.411 194.432 157.411 195.482V195.524C157.411 196.131 156.794 196.078 155.302 196.27C153.784 196.467 152.127 196.803 152.127 198.678C152.127 200.276 153.363 201.192 154.919 201.192ZM155.11 200.062C154.109 200.062 153.384 199.615 153.384 198.741C153.384 197.783 154.258 197.484 155.238 197.357C155.771 197.293 157.198 197.143 157.411 196.888V198.038C157.411 199.061 156.602 200.062 155.11 200.062ZM160.963 201H162.22V195.822C162.22 194.714 163.094 193.905 164.287 193.905C164.623 193.905 164.969 193.969 165.054 193.99V192.712C164.91 192.701 164.58 192.69 164.393 192.69C163.413 192.69 162.561 193.244 162.263 194.054H162.178V192.818H160.963V201ZM167.603 204.068C168.737 204.068 169.536 203.466 170.01 202.193L173.494 192.839L172.12 192.818L169.861 199.338H169.776L167.518 192.818H166.154L169.18 201.043L168.945 201.682C168.487 202.928 167.922 203.045 167.006 202.811L166.687 203.919C166.814 203.983 167.177 204.068 167.603 204.068ZM179.355 201H186.237V199.828H181.166V199.743L183.616 197.122C185.491 195.114 186.045 194.176 186.045 192.967C186.045 191.284 184.682 189.942 182.764 189.942C180.852 189.942 179.397 191.241 179.397 193.159H180.655C180.655 191.918 181.459 191.092 182.721 191.092C183.904 191.092 184.809 191.817 184.809 192.967C184.809 193.974 184.218 194.72 182.956 196.099L179.355 200.041V201ZM191.995 201.149C194.403 201.149 195.788 199.109 195.788 195.545C195.788 192.009 194.381 189.942 191.995 189.942C189.609 189.942 188.203 192.009 188.203 195.545C188.203 199.109 189.587 201.149 191.995 201.149ZM191.995 199.977C190.408 199.977 189.481 198.385 189.481 195.545C189.481 192.712 190.418 191.092 191.995 191.092C193.572 191.092 194.509 192.712 194.509 195.545C194.509 198.385 193.582 199.977 191.995 199.977ZM197.812 201H204.694V199.828H199.623V199.743L202.073 197.122C203.948 195.114 204.502 194.176 204.502 192.967C204.502 191.284 203.139 189.942 201.221 189.942C199.309 189.942 197.854 191.241 197.854 193.159H199.112C199.112 191.918 199.916 191.092 201.178 191.092C202.361 191.092 203.266 191.817 203.266 192.967C203.266 193.974 202.675 194.72 201.413 196.099L197.812 200.041V201ZM210.729 190.091H209.408L206.681 191.902V193.244L209.344 191.476H209.408V201H210.729V190.091Z" fill="#718EBF"/>
<path d="M264.359 186.045H265.888V182.966H268.967V181.438H265.888V178.364H264.359V181.438H261.286V182.966H264.359V186.045ZM275.078 189.455H276.146L276.152 188.176C278.555 188 279.93 186.625 279.93 184.784C279.93 182.688 278.061 181.875 276.584 181.511L276.169 181.403L276.18 177.756C277.243 177.898 277.97 178.489 278.078 179.42H279.771C279.726 177.688 278.294 176.392 276.186 176.222L276.192 174.909H275.124L275.118 176.233C273.078 176.438 271.584 177.71 271.584 179.545C271.584 181.165 272.743 182.114 274.612 182.619L275.101 182.75L275.089 186.619C273.982 186.483 273.124 185.881 273.033 184.784H271.271C271.379 186.744 272.794 188.006 275.084 188.176L275.078 189.455ZM276.158 186.619L276.169 183.045C277.322 183.364 278.192 183.784 278.192 184.767C278.192 185.761 277.362 186.46 276.158 186.619ZM275.107 181.119C274.26 180.869 273.328 180.42 273.334 179.443C273.334 178.591 274.01 177.926 275.112 177.761L275.107 181.119ZM285.71 188.159C288.051 188.159 289.722 186.506 289.716 184.239C289.722 181.989 288.153 180.352 286.034 180.352C285.17 180.352 284.369 180.682 283.915 181.125H283.847L284.216 177.869H289.153V176.364H282.756L282.102 182.227L283.71 182.466C284.148 182.074 284.932 181.807 285.636 181.807C287.017 181.818 288.017 182.852 288.017 184.273C288.017 185.67 287.045 186.682 285.71 186.682C284.585 186.682 283.693 185.966 283.602 184.966H281.898C281.966 186.818 283.574 188.159 285.71 188.159ZM293.618 186.409H291.982L291.925 187.045C291.794 188.585 291.43 190.136 291.277 190.841H292.482C292.754 190.097 293.357 188.392 293.533 187.028L293.618 186.409ZM295.75 185.727H301.267V188H302.943V185.727H304.483V184.239H302.943V176.364H300.778L295.75 184.307V185.727ZM301.278 184.239H297.591V184.148L301.188 178.455H301.278V184.239ZM310.514 188.193C313.202 188.193 314.776 186 314.776 182.188C314.776 178.403 313.179 176.205 310.514 176.205C307.844 176.205 306.253 178.398 306.247 182.188C306.247 185.994 307.821 188.188 310.514 188.193ZM310.514 186.676C308.94 186.676 307.991 185.097 307.991 182.188C307.997 179.29 308.946 177.693 310.514 177.693C312.077 177.693 313.031 179.29 313.031 182.188C313.031 185.097 312.082 186.676 310.514 186.676ZM320.842 188.193C323.53 188.193 325.104 186 325.104 182.188C325.104 178.403 323.507 176.205 320.842 176.205C318.172 176.205 316.581 178.398 316.575 182.188C316.575 185.994 318.149 188.188 320.842 188.193ZM320.842 186.676C319.268 186.676 318.32 185.097 318.32 182.188C318.325 179.29 319.274 177.693 320.842 177.693C322.405 177.693 323.359 179.29 323.359 182.188C323.359 185.097 322.411 186.676 320.842 186.676Z" fill="#41D4A8"/>
<circle cx="52.5" cy="182.5" r="27.5" fill="#DCFAF8"/>
<path d="M53.0001 180.379C53.4962 180.379 53.9014 180.783 53.9014 181.279C53.9014 181.732 54.2693 182.099 54.722 182.099C55.1736 182.099 55.5416 181.732 55.5416 181.279C55.5416 180.167 54.8171 179.229 53.8197 178.886V178.42C53.8197 177.969 53.4528 177.6 53.0001 177.6C52.5464 177.6 52.1795 177.969 52.1795 178.42V178.886C51.1822 179.229 50.4598 180.167 50.4598 181.279C50.4598 182.682 51.5987 183.821 53.0001 183.821C53.4962 183.821 53.9014 184.226 53.9014 184.722C53.9014 185.219 53.4962 185.623 53.0001 185.623C52.5041 185.623 52.1 185.219 52.1 184.722C52.1 184.269 51.732 183.901 51.2793 183.901C50.8256 183.901 50.4598 184.269 50.4598 184.722C50.4598 185.834 51.1822 186.771 52.1795 187.114V187.579C52.1795 188.033 52.5464 188.401 53.0001 188.401C53.4528 188.401 53.8197 188.033 53.8197 187.579V187.114C54.8171 186.771 55.5416 185.834 55.5416 184.722C55.5416 183.32 54.4016 182.18 53.0001 182.18C52.5041 182.18 52.1 181.776 52.1 181.279C52.1 180.783 52.5041 180.379 53.0001 180.379ZM59.872 187.555C60.274 187.767 60.7691 187.613 60.9799 187.214C61.662 185.925 62.0217 184.468 62.0217 183C62.0217 178.027 57.9734 173.979 53.0001 173.979C48.0258 173.979 43.9786 178.027 43.9786 183C43.9786 187.974 48.0258 192.022 53.0001 192.022C54.446 192.022 55.8826 191.672 57.1549 191.01C57.5569 190.802 57.713 190.305 57.5042 189.904C57.2954 189.504 56.8004 189.345 56.3973 189.555C55.3442 190.104 54.2001 190.382 53.0001 190.382C48.9302 190.382 45.6177 187.071 45.6177 183C45.6177 178.931 48.9302 175.619 53.0001 175.619C57.0701 175.619 60.3825 178.931 60.3825 183C60.3825 184.202 60.087 185.394 59.5309 186.446C59.318 186.847 59.471 187.343 59.872 187.555ZM53.0001 170.697C50.6241 170.697 48.3173 171.377 46.3298 172.662C45.9485 172.908 45.8399 173.415 46.0859 173.796C46.3329 174.176 46.8383 174.283 47.2207 174.039C48.9405 172.927 50.9414 172.338 53.0001 172.338C58.8798 172.338 63.6619 177.121 63.6619 183C63.6619 188.88 58.8798 193.663 53.0001 193.663C47.1205 193.663 42.3374 188.88 42.3374 183C42.3374 180.961 42.9151 178.978 44.0096 177.267C44.2535 176.885 44.1419 176.377 43.7595 176.133C43.3781 175.889 42.8707 176.001 42.6278 176.382C41.3648 178.357 40.6972 180.648 40.6972 183C40.6972 189.785 46.2151 195.303 53.0001 195.303C59.7841 195.303 65.3031 189.785 65.3031 183C65.3031 176.217 59.7841 170.697 53.0001 170.697Z" fill="#16DBCC"/>
</svg>
