<svg width="325" height="214" viewBox="0 0 325 214" fill="none" xmlns="http://www.w3.org/2000/svg">
<rect width="325" height="214" rx="15" fill="white"/>
<path d="M87.4148 41C90.517 41 92.3118 39.076 92.3118 35.8942C92.3118 32.7273 90.517 30.8182 87.5192 30.8182H84.1186V41H87.4148ZM85.6548 39.6577V32.1605H87.4247C89.652 32.1605 90.8004 33.4929 90.8004 35.8942C90.8004 38.3054 89.652 39.6577 87.3303 39.6577H85.6548ZM97.394 41.1541C99.0595 41.1541 100.238 40.3338 100.576 39.0909L99.1689 38.8374C98.9004 39.5582 98.2541 39.9261 97.4089 39.9261C96.1362 39.9261 95.2811 39.1009 95.2413 37.6293H100.67V37.1023C100.67 34.343 99.0197 33.2642 97.2896 33.2642C95.1618 33.2642 93.7598 34.8849 93.7598 37.2315C93.7598 39.603 95.1419 41.1541 97.394 41.1541ZM95.2463 36.5156C95.3059 35.4318 96.0914 34.4922 97.2995 34.4922C98.4529 34.4922 99.2086 35.3473 99.2136 36.5156H95.2463ZM102.32 43.8636H103.806V39.8118H103.896C104.164 40.299 104.711 41.1491 106.103 41.1491C107.952 41.1491 109.295 39.6676 109.295 37.1967C109.295 34.7209 107.933 33.2642 106.088 33.2642C104.671 33.2642 104.159 34.1293 103.896 34.6016H103.771V33.3636H102.32V43.8636ZM103.776 37.1818C103.776 35.5859 104.472 34.527 105.77 34.527C107.117 34.527 107.793 35.6655 107.793 37.1818C107.793 38.7131 107.097 39.8814 105.77 39.8814C104.492 39.8814 103.776 38.7876 103.776 37.1818ZM114.177 41.1541C116.33 41.1541 117.737 39.5781 117.737 37.2166C117.737 34.8402 116.33 33.2642 114.177 33.2642C112.024 33.2642 110.617 34.8402 110.617 37.2166C110.617 39.5781 112.024 41.1541 114.177 41.1541ZM114.182 39.9062C112.775 39.9062 112.119 38.6783 112.119 37.2116C112.119 35.75 112.775 34.5071 114.182 34.5071C115.579 34.5071 116.235 35.75 116.235 37.2116C116.235 38.6783 115.579 39.9062 114.182 39.9062ZM125.118 35.228C124.81 34.0398 123.88 33.2642 122.23 33.2642C120.504 33.2642 119.281 34.174 119.281 35.5263C119.281 36.6101 119.938 37.331 121.369 37.6491L122.662 37.9325C123.398 38.0966 123.741 38.4247 123.741 38.902C123.741 39.4936 123.11 39.956 122.135 39.956C121.245 39.956 120.673 39.5732 120.494 38.8224L119.058 39.0412C119.306 40.3935 120.43 41.1541 122.145 41.1541C123.99 41.1541 125.267 40.1747 125.267 38.7926C125.267 37.7138 124.581 37.0476 123.179 36.7244L121.966 36.446C121.126 36.2472 120.763 35.9638 120.768 35.4467C120.763 34.8601 121.399 34.4425 122.244 34.4425C123.169 34.4425 123.597 34.9545 123.771 35.4666L125.118 35.228ZM126.902 41H128.388V33.3636H126.902V41ZM127.652 32.1854C128.164 32.1854 128.592 31.7876 128.592 31.3004C128.592 30.8132 128.164 30.4105 127.652 30.4105C127.135 30.4105 126.713 30.8132 126.713 31.3004C126.713 31.7876 127.135 32.1854 127.652 32.1854ZM133.953 33.3636H132.387V31.5341H130.9V33.3636H129.781V34.5568H130.9V39.0661C130.895 40.4531 131.954 41.1243 133.127 41.0994C133.6 41.0945 133.918 41.005 134.092 40.9403L133.823 39.7124C133.724 39.7322 133.54 39.777 133.301 39.777C132.819 39.777 132.387 39.6179 132.387 38.7578V34.5568H133.953V33.3636ZM142.936 33.3636H141.291V32.6776C141.291 32.0014 141.569 31.6335 142.295 31.6335C142.603 31.6335 142.822 31.7031 142.961 31.7479L143.309 30.5447C143.1 30.4652 142.668 30.3409 142.066 30.3409C140.858 30.3409 139.799 31.0469 139.799 32.4787V33.3636H138.621V34.5568H139.799V41H141.291V34.5568H142.936V33.3636ZM144.47 41H145.956V36.3366C145.956 35.3374 146.727 34.6165 147.781 34.6165C148.089 34.6165 148.437 34.6712 148.557 34.706V33.2841C148.407 33.2642 148.114 33.2493 147.925 33.2493C147.03 33.2493 146.265 33.7564 145.986 34.5767H145.907V33.3636H144.47V41ZM152.786 41.1541C154.939 41.1541 156.346 39.5781 156.346 37.2166C156.346 34.8402 154.939 33.2642 152.786 33.2642C150.634 33.2642 149.227 34.8402 149.227 37.2166C149.227 39.5781 150.634 41.1541 152.786 41.1541ZM152.791 39.9062C151.384 39.9062 150.728 38.6783 150.728 37.2116C150.728 35.75 151.384 34.5071 152.791 34.5071C154.188 34.5071 154.844 35.75 154.844 37.2116C154.844 38.6783 154.188 39.9062 152.791 39.9062ZM158.005 41H159.492V36.2919C159.492 35.2628 160.213 34.5469 161.058 34.5469C161.883 34.5469 162.455 35.0938 162.455 35.924V41H163.936V36.1328C163.936 35.2131 164.498 34.5469 165.468 34.5469C166.253 34.5469 166.899 34.9844 166.899 36.0185V41H168.386V35.8793C168.386 34.1342 167.411 33.2642 166.029 33.2642C164.931 33.2642 164.105 33.7912 163.737 34.6065H163.658C163.325 33.7713 162.624 33.2642 161.605 33.2642C160.595 33.2642 159.845 33.7663 159.526 34.6065H159.432V33.3636H158.005V41ZM174.083 41H175.57V36.2919C175.57 35.2628 176.291 34.5469 177.136 34.5469C177.961 34.5469 178.533 35.0938 178.533 35.924V41H180.014V36.1328C180.014 35.2131 180.576 34.5469 181.546 34.5469C182.331 34.5469 182.977 34.9844 182.977 36.0185V41H184.464V35.8793C184.464 34.1342 183.49 33.2642 182.107 33.2642C181.009 33.2642 180.183 33.7912 179.816 34.6065H179.736C179.403 33.7713 178.702 33.2642 177.683 33.2642C176.673 33.2642 175.923 33.7663 175.605 34.6065H175.51V33.3636H174.083V41ZM187.123 43.8636C188.35 43.8636 189.126 43.2223 189.569 42.0192L192.725 33.3786L191.12 33.3636L189.186 39.2898H189.106L187.172 33.3636H185.581L188.375 41.0994L188.191 41.6065C187.814 42.6207 187.282 42.7053 186.466 42.4815L186.108 43.6996C186.287 43.7791 186.675 43.8636 187.123 43.8636Z" fill="#232323"/>
<path d="M83.9034 60H89.4091V59.0625H85.3523V58.9943L87.3125 56.8977C88.8125 55.2912 89.2557 54.5412 89.2557 53.5739C89.2557 52.2273 88.1648 51.1534 86.6307 51.1534C85.1009 51.1534 83.9375 52.1932 83.9375 53.7273H84.9432C84.9432 52.7344 85.5866 52.0739 86.5966 52.0739C87.5426 52.0739 88.267 52.6534 88.267 53.5739C88.267 54.3793 87.794 54.9759 86.7841 56.0795L83.9034 59.233V60ZM93.9645 60.1193C95.7074 60.1193 96.9219 59.1009 96.9304 57.6818C96.9219 56.5781 96.1847 55.6406 95.2429 55.4659V55.4148C96.0611 55.2017 96.598 54.4006 96.6065 53.4716C96.598 52.142 95.4815 51.1534 93.9645 51.1534C92.4304 51.1534 91.3139 52.142 91.3224 53.4716C91.3139 54.4006 91.8509 55.2017 92.6861 55.4148V55.4659C91.7273 55.6406 90.9901 56.5781 90.9986 57.6818C90.9901 59.1009 92.2045 60.1193 93.9645 60.1193ZM93.9645 59.1818C92.767 59.1818 92.0298 58.5682 92.0384 57.6307C92.0298 56.6463 92.8438 55.9432 93.9645 55.9432C95.0682 55.9432 95.8821 56.6463 95.8906 57.6307C95.8821 58.5682 95.1449 59.1818 93.9645 59.1818ZM93.9645 55.0398C93.0099 55.0398 92.3366 54.4432 92.3452 53.5398C92.3366 52.6534 92.9844 52.0739 93.9645 52.0739C94.9276 52.0739 95.5753 52.6534 95.5838 53.5398C95.5753 54.4432 94.902 55.0398 93.9645 55.0398ZM105.433 51.2727V57.5114C105.433 58.598 104.913 59.1818 104.001 59.1818C103.17 59.1818 102.569 58.696 102.569 57.9545H101.529C101.529 59.2969 102.569 60.1193 104.001 60.1193C105.518 60.1193 106.49 59.1861 106.49 57.5114V51.2727H105.433ZM110.397 60.1534C111.539 60.1534 112.136 59.5398 112.341 59.1136H112.392V60H113.397V55.6875C113.397 53.608 111.812 53.3693 110.977 53.3693C109.988 53.3693 108.863 53.7102 108.352 54.9034L109.306 55.2443C109.528 54.767 110.052 54.2557 111.011 54.2557C111.936 54.2557 112.392 54.7457 112.392 55.5852V55.6193C112.392 56.1051 111.897 56.0625 110.704 56.2159C109.49 56.3736 108.164 56.642 108.164 58.142C108.164 59.4205 109.153 60.1534 110.397 60.1534ZM110.551 59.25C109.75 59.25 109.17 58.892 109.17 58.1932C109.17 57.4261 109.869 57.1875 110.653 57.0852C111.079 57.0341 112.221 56.9148 112.392 56.7102V57.6307C112.392 58.4489 111.744 59.25 110.551 59.25ZM116.239 56.0625C116.239 54.9205 116.946 54.2727 117.909 54.2727C118.842 54.2727 119.409 54.8821 119.409 55.9091V60H120.415V55.8409C120.415 54.1705 119.524 53.3693 118.199 53.3693C117.21 53.3693 116.597 53.8125 116.29 54.4773H116.205V53.4545H115.233V60H116.239V56.0625ZM126.377 57.3239C126.377 58.5511 125.44 59.1136 124.69 59.1136C123.855 59.1136 123.258 58.5 123.258 57.5455V53.4545H122.252V57.6136C122.252 59.2841 123.139 60.0852 124.366 60.0852C125.355 60.0852 126.002 59.5568 126.309 58.892H126.377V60H127.383V53.4545H126.377V57.3239ZM131.151 60.1534C132.293 60.1534 132.89 59.5398 133.094 59.1136H133.146V60H134.151V55.6875C134.151 53.608 132.566 53.3693 131.731 53.3693C130.742 53.3693 129.617 53.7102 129.106 54.9034L130.06 55.2443C130.282 54.767 130.806 54.2557 131.765 54.2557C132.69 54.2557 133.146 54.7457 133.146 55.5852V55.6193C133.146 56.1051 132.651 56.0625 131.458 56.2159C130.244 56.3736 128.918 56.642 128.918 58.142C128.918 59.4205 129.907 60.1534 131.151 60.1534ZM131.305 59.25C130.504 59.25 129.924 58.892 129.924 58.1932C129.924 57.4261 130.623 57.1875 131.407 57.0852C131.833 57.0341 132.975 56.9148 133.146 56.7102V57.6307C133.146 58.4489 132.498 59.25 131.305 59.25ZM135.987 60H136.993V55.858C136.993 54.9716 137.691 54.3239 138.646 54.3239C138.914 54.3239 139.191 54.375 139.26 54.392V53.3693C139.145 53.3608 138.88 53.3523 138.731 53.3523C137.947 53.3523 137.265 53.7955 137.027 54.4432H136.958V53.4545H135.987V60ZM141.299 62.4545C142.206 62.4545 142.846 61.973 143.225 60.9545L146.012 53.4716L144.912 53.4545L143.105 58.6705H143.037L141.23 53.4545H140.14L142.56 60.0341L142.373 60.5455C142.006 61.5426 141.554 61.6364 140.821 61.4489L140.566 62.3352C140.668 62.3864 140.958 62.4545 141.299 62.4545ZM150.7 60H156.206V59.0625H152.149V58.9943L154.109 56.8977C155.609 55.2912 156.053 54.5412 156.053 53.5739C156.053 52.2273 154.962 51.1534 153.428 51.1534C151.898 51.1534 150.734 52.1932 150.734 53.7273H151.74C151.74 52.7344 152.384 52.0739 153.393 52.0739C154.339 52.0739 155.064 52.6534 155.064 53.5739C155.064 54.3793 154.591 54.9759 153.581 56.0795L150.7 59.233V60ZM160.812 60.1193C162.739 60.1193 163.847 58.4872 163.847 55.6364C163.847 52.8068 162.722 51.1534 160.812 51.1534C158.903 51.1534 157.778 52.8068 157.778 55.6364C157.778 58.4872 158.886 60.1193 160.812 60.1193ZM160.812 59.1818C159.543 59.1818 158.801 57.9077 158.801 55.6364C158.801 53.3693 159.551 52.0739 160.812 52.0739C162.074 52.0739 162.824 53.3693 162.824 55.6364C162.824 57.9077 162.082 59.1818 160.812 59.1818ZM165.466 60H170.972V59.0625H166.915V58.9943L168.875 56.8977C170.375 55.2912 170.818 54.5412 170.818 53.5739C170.818 52.2273 169.727 51.1534 168.193 51.1534C166.663 51.1534 165.5 52.1932 165.5 53.7273H166.506C166.506 52.7344 167.149 52.0739 168.159 52.0739C169.105 52.0739 169.83 52.6534 169.83 53.5739C169.83 54.3793 169.357 54.9759 168.347 56.0795L165.466 59.233V60ZM175.8 51.2727H174.743L172.561 52.7216V53.7955L174.692 52.3807H174.743V60H175.8V51.2727Z" fill="#718EBF"/>
<path d="M278.277 45.4961H274.73V46.5078H278.277V45.4961ZM282.229 51H282.963L282.967 50.1211C284.619 50 285.564 49.0547 285.564 47.7891C285.564 46.3477 284.279 45.7891 283.264 45.5391L282.979 45.4648L282.986 42.957C283.717 43.0547 284.217 43.4609 284.291 44.1016H285.455C285.424 42.9102 284.439 42.0195 282.99 41.9023L282.994 41H282.26L282.256 41.9102C280.854 42.0508 279.826 42.9258 279.826 44.1875C279.826 45.3008 280.623 45.9531 281.908 46.3008L282.244 46.3906L282.236 49.0508C281.475 48.957 280.885 48.543 280.822 47.7891H279.611C279.686 49.1367 280.658 50.0039 282.232 50.1211L282.229 51ZM282.971 49.0508L282.979 46.5937C283.771 46.8125 284.369 47.1016 284.369 47.7773C284.369 48.4609 283.799 48.9414 282.971 49.0508ZM282.248 45.2695C281.666 45.0977 281.025 44.7891 281.029 44.1172C281.029 43.5312 281.494 43.0742 282.252 42.9609L282.248 45.2695ZM289.601 50.1094C291.265 50.1094 292.44 49.1641 292.448 47.8672C292.44 46.8594 291.733 46.0117 290.839 45.8516V45.8047C291.616 45.6172 292.144 44.8867 292.151 44.0234C292.144 42.8008 291.065 41.8906 289.601 41.8906C288.12 41.8906 287.042 42.8008 287.05 44.0234C287.042 44.8828 287.569 45.6172 288.362 45.8047V45.8516C287.452 46.0117 286.745 46.8594 286.753 47.8672C286.745 49.1641 287.921 50.1094 289.601 50.1094ZM289.601 49.1211C288.601 49.1211 287.968 48.5898 287.976 47.7891C287.968 46.957 288.655 46.3633 289.601 46.3633C290.53 46.3633 291.218 46.957 291.226 47.7891C291.218 48.5898 290.589 49.1211 289.601 49.1211ZM289.601 45.3984C288.792 45.3984 288.218 44.8867 288.226 44.125C288.218 43.375 288.772 42.8789 289.601 42.8789C290.413 42.8789 290.968 43.375 290.976 44.125C290.968 44.8867 290.397 45.3984 289.601 45.3984ZM296.488 50.1094C298.098 50.1094 299.246 48.9727 299.242 47.4141C299.246 45.8672 298.168 44.7422 296.711 44.7422C296.117 44.7422 295.566 44.9687 295.254 45.2734H295.207L295.461 43.0352H298.855V42H294.457L294.008 46.0312L295.113 46.1953C295.414 45.9258 295.953 45.7422 296.438 45.7422C297.387 45.75 298.074 46.4609 298.074 47.4375C298.074 48.3984 297.406 49.0937 296.488 49.0937C295.715 49.0937 295.102 48.6016 295.039 47.9141H293.867C293.914 49.1875 295.02 50.1094 296.488 50.1094ZM303.454 50.1328C305.302 50.1328 306.384 48.625 306.384 46.0039C306.384 43.4023 305.286 41.8906 303.454 41.8906C301.618 41.8906 300.524 43.3984 300.521 46.0039C300.521 48.6211 301.603 50.1289 303.454 50.1328ZM303.454 49.0898C302.372 49.0898 301.72 48.0039 301.72 46.0039C301.724 44.0117 302.376 42.9141 303.454 42.9141C304.528 42.9141 305.185 44.0117 305.185 46.0039C305.185 48.0039 304.532 49.0898 303.454 49.0898Z" fill="#FF4B4A"/>
<circle cx="43" cy="45" r="25" fill="#FFF5D9"/>
<path d="M46.6475 54.9727H35.0713C34.4517 54.972 33.8577 54.7256 33.4196 54.2875C32.9814 53.8494 32.735 53.2553 32.7344 52.6357V45.7271C32.735 45.1075 32.9814 44.5134 33.4196 44.0753C33.8577 43.6372 34.4517 43.3908 35.0713 43.3901H46.6475C47.2671 43.3908 47.8611 43.6372 48.2992 44.0753C48.7373 44.5134 48.9837 45.1075 48.9844 45.7271V52.6357C48.9837 53.2553 48.7373 53.8494 48.2992 54.2875C47.8611 54.7256 47.2671 54.972 46.6475 54.9727ZM35.0713 44.855C34.8401 44.8552 34.6184 44.9472 34.4549 45.1107C34.2914 45.2742 34.1995 45.4958 34.1992 45.7271V52.6357C34.1995 52.867 34.2914 53.0886 34.4549 53.2521C34.6184 53.4156 34.8401 53.5076 35.0713 53.5078H46.6475C46.8787 53.5076 47.1003 53.4156 47.2638 53.2521C47.4273 53.0886 47.5193 52.867 47.5195 52.6357V45.7271C47.5193 45.4958 47.4273 45.2742 47.2638 45.1107C47.1003 44.9472 46.8787 44.8552 46.6475 44.855H35.0713Z" fill="#FFBB38"/>
<path d="M49.9297 51.0283H48.252C48.0577 51.0283 47.8714 50.9512 47.7341 50.8138C47.5967 50.6764 47.5195 50.4901 47.5195 50.2959C47.5195 50.1016 47.5967 49.9154 47.7341 49.778C47.8714 49.6406 48.0577 49.5635 48.252 49.5635H49.9297C50.1607 49.563 50.3821 49.4709 50.5454 49.3074C50.7087 49.144 50.8005 48.9224 50.8008 48.6914V41.7827C50.8007 41.5516 50.7089 41.3299 50.5456 41.1664C50.3823 41.0028 50.1608 40.9107 49.9297 40.9102H38.3535C38.1223 40.9104 37.9006 41.0024 37.7372 41.1659C37.5737 41.3294 37.4817 41.551 37.4814 41.7822V44.1221C37.4814 44.3163 37.4043 44.5026 37.2669 44.64C37.1296 44.7773 36.9433 44.8545 36.749 44.8545C36.5548 44.8545 36.3685 44.7773 36.2311 44.64C36.0938 44.5026 36.0166 44.3163 36.0166 44.1221V41.7827C36.0171 41.163 36.2635 40.5689 36.7016 40.1307C37.1397 39.6924 37.7338 39.446 38.3535 39.4453H49.9297C50.5492 39.4462 51.143 39.6928 51.581 40.131C52.0189 40.5692 52.2651 41.1632 52.2656 41.7827V48.6914C52.265 49.3108 52.0187 49.9047 51.5808 50.3428C51.1429 50.7809 50.5491 51.0274 49.9297 51.0283Z" fill="#FFBB38"/>
<path d="M48.252 49.7378H33.4668C33.2725 49.7378 33.0863 49.6606 32.9489 49.5233C32.8115 49.3859 32.7344 49.1996 32.7344 49.0054V46.5454C32.7344 46.3512 32.8115 46.1649 32.9489 46.0275C33.0863 45.8902 33.2725 45.813 33.4668 45.813H48.252C48.4462 45.813 48.6325 45.8902 48.7699 46.0275C48.9072 46.1649 48.9844 46.3512 48.9844 46.5454V49.0054C48.9844 49.1996 48.9072 49.3859 48.7699 49.5233C48.6325 49.6606 48.4462 49.7378 48.252 49.7378ZM34.1992 48.273H47.5195V47.2778H34.1992V48.273Z" fill="#FFBB38"/>
<path d="M88.4148 103C91.517 103 93.3118 101.076 93.3118 97.8942C93.3118 94.7273 91.517 92.8182 88.5192 92.8182H85.1186V103H88.4148ZM86.6548 101.658V94.1605H88.4247C90.652 94.1605 91.8004 95.4929 91.8004 97.8942C91.8004 100.305 90.652 101.658 88.3303 101.658H86.6548ZM98.394 103.154C100.059 103.154 101.238 102.334 101.576 101.091L100.169 100.837C99.9004 101.558 99.2541 101.926 98.4089 101.926C97.1362 101.926 96.2811 101.101 96.2413 99.6293H101.67V99.1023C101.67 96.343 100.02 95.2642 98.2896 95.2642C96.1618 95.2642 94.7598 96.8849 94.7598 99.2315C94.7598 101.603 96.1419 103.154 98.394 103.154ZM96.2463 98.5156C96.3059 97.4318 97.0914 96.4922 98.2995 96.4922C99.4529 96.4922 100.209 97.3473 100.214 98.5156H96.2463ZM103.32 105.864H104.806V101.812H104.896C105.164 102.299 105.711 103.149 107.103 103.149C108.952 103.149 110.295 101.668 110.295 99.1967C110.295 96.7209 108.933 95.2642 107.088 95.2642C105.671 95.2642 105.159 96.1293 104.896 96.6016H104.771V95.3636H103.32V105.864ZM104.776 99.1818C104.776 97.5859 105.472 96.527 106.77 96.527C108.117 96.527 108.793 97.6655 108.793 99.1818C108.793 100.713 108.097 101.881 106.77 101.881C105.492 101.881 104.776 100.788 104.776 99.1818ZM115.177 103.154C117.33 103.154 118.737 101.578 118.737 99.2166C118.737 96.8402 117.33 95.2642 115.177 95.2642C113.024 95.2642 111.617 96.8402 111.617 99.2166C111.617 101.578 113.024 103.154 115.177 103.154ZM115.182 101.906C113.775 101.906 113.119 100.678 113.119 99.2116C113.119 97.75 113.775 96.5071 115.182 96.5071C116.579 96.5071 117.235 97.75 117.235 99.2116C117.235 100.678 116.579 101.906 115.182 101.906ZM126.118 97.228C125.81 96.0398 124.88 95.2642 123.23 95.2642C121.504 95.2642 120.281 96.174 120.281 97.5263C120.281 98.6101 120.938 99.331 122.369 99.6491L123.662 99.9325C124.398 100.097 124.741 100.425 124.741 100.902C124.741 101.494 124.11 101.956 123.135 101.956C122.245 101.956 121.673 101.573 121.494 100.822L120.058 101.041C120.306 102.393 121.43 103.154 123.145 103.154C124.99 103.154 126.267 102.175 126.267 100.793C126.267 99.7138 125.581 99.0476 124.179 98.7244L122.966 98.446C122.126 98.2472 121.763 97.9638 121.768 97.4467C121.763 96.8601 122.399 96.4425 123.244 96.4425C124.169 96.4425 124.597 96.9545 124.771 97.4666L126.118 97.228ZM127.902 103H129.388V95.3636H127.902V103ZM128.652 94.1854C129.164 94.1854 129.592 93.7876 129.592 93.3004C129.592 92.8132 129.164 92.4105 128.652 92.4105C128.135 92.4105 127.713 92.8132 127.713 93.3004C127.713 93.7876 128.135 94.1854 128.652 94.1854ZM134.953 95.3636H133.387V93.5341H131.9V95.3636H130.781V96.5568H131.9V101.066C131.895 102.453 132.954 103.124 134.127 103.099C134.6 103.094 134.918 103.005 135.092 102.94L134.823 101.712C134.724 101.732 134.54 101.777 134.301 101.777C133.819 101.777 133.387 101.618 133.387 100.758V96.5568H134.953V95.3636ZM140.421 103H141.958V99.4205H144.046C146.407 99.4205 147.575 97.9936 147.575 96.1143C147.575 94.2401 146.417 92.8182 144.051 92.8182H140.421V103ZM141.958 98.1179V94.1357H143.887C145.408 94.1357 146.029 94.9609 146.029 96.1143C146.029 97.2678 145.408 98.1179 143.906 98.1179H141.958ZM151.411 103.169C152.674 103.169 153.385 102.528 153.668 101.956H153.728V103H155.18V97.929C155.18 95.7067 153.43 95.2642 152.216 95.2642C150.834 95.2642 149.562 95.821 149.064 97.2131L150.461 97.5312C150.68 96.9893 151.237 96.4673 152.236 96.4673C153.196 96.4673 153.688 96.9695 153.688 97.8345V97.8693C153.688 98.4112 153.131 98.4013 151.759 98.5604C150.312 98.7294 148.831 99.1072 148.831 100.842C148.831 102.344 149.959 103.169 151.411 103.169ZM151.734 101.976C150.894 101.976 150.287 101.598 150.287 100.862C150.287 100.067 150.993 99.7834 151.854 99.669C152.336 99.6044 153.479 99.4751 153.693 99.2614V100.246C153.693 101.151 152.972 101.976 151.734 101.976ZM157.826 105.864C159.054 105.864 159.829 105.222 160.272 104.019L163.429 95.3786L161.823 95.3636L159.889 101.29H159.809L157.875 95.3636H156.284L159.078 103.099L158.895 103.607C158.517 104.621 157.985 104.705 157.169 104.482L156.811 105.7C156.99 105.779 157.378 105.864 157.826 105.864ZM164.829 105.864H166.316V101.812H166.405C166.674 102.299 167.221 103.149 168.613 103.149C170.462 103.149 171.805 101.668 171.805 99.1967C171.805 96.7209 170.442 95.2642 168.598 95.2642C167.181 95.2642 166.669 96.1293 166.405 96.6016H166.281V95.3636H164.829V105.864ZM166.286 99.1818C166.286 97.5859 166.982 96.527 168.28 96.527C169.627 96.527 170.303 97.6655 170.303 99.1818C170.303 100.713 169.607 101.881 168.28 101.881C167.002 101.881 166.286 100.788 166.286 99.1818ZM175.692 103.169C176.955 103.169 177.666 102.528 177.949 101.956H178.009V103H179.461V97.929C179.461 95.7067 177.711 95.2642 176.498 95.2642C175.116 95.2642 173.843 95.821 173.346 97.2131L174.743 97.5312C174.961 96.9893 175.518 96.4673 176.518 96.4673C177.477 96.4673 177.969 96.9695 177.969 97.8345V97.8693C177.969 98.4112 177.412 98.4013 176.04 98.5604C174.594 98.7294 173.112 99.1072 173.112 100.842C173.112 102.344 174.241 103.169 175.692 103.169ZM176.015 101.976C175.175 101.976 174.569 101.598 174.569 100.862C174.569 100.067 175.275 99.7834 176.135 99.669C176.617 99.6044 177.76 99.4751 177.974 99.2614V100.246C177.974 101.151 177.253 101.976 176.015 101.976ZM182.927 92.8182H181.441V103H182.927V92.8182Z" fill="#232323"/>
<path d="M84.9034 122H90.4091V121.062H86.3523V120.994L88.3125 118.898C89.8125 117.291 90.2557 116.541 90.2557 115.574C90.2557 114.227 89.1648 113.153 87.6307 113.153C86.1009 113.153 84.9375 114.193 84.9375 115.727H85.9432C85.9432 114.734 86.5866 114.074 87.5966 114.074C88.5426 114.074 89.267 114.653 89.267 115.574C89.267 116.379 88.794 116.976 87.7841 118.08L84.9034 121.233V122ZM94.8963 122.119C96.5582 122.119 97.777 120.892 97.777 119.222C97.777 117.53 96.6009 116.29 94.9986 116.29C94.4105 116.29 93.8395 116.499 93.4815 116.784H93.4304L93.7372 114.21H97.3849V113.273H92.8509L92.3224 117.568L93.3111 117.688C93.6733 117.428 94.2912 117.24 94.8281 117.244C95.9403 117.253 96.7543 118.097 96.7543 119.239C96.7543 120.359 95.9702 121.182 94.8963 121.182C94.0014 121.182 93.2898 120.607 93.2088 119.818H92.1861C92.25 121.148 93.3963 122.119 94.8963 122.119ZM106.339 113.273V119.511C106.339 120.598 105.819 121.182 104.907 121.182C104.076 121.182 103.475 120.696 103.475 119.955H102.436C102.436 121.297 103.475 122.119 104.907 122.119C106.424 122.119 107.396 121.186 107.396 119.511V113.273H106.339ZM111.304 122.153C112.446 122.153 113.042 121.54 113.247 121.114H113.298V122H114.304V117.688C114.304 115.608 112.718 115.369 111.883 115.369C110.895 115.369 109.77 115.71 109.258 116.903L110.213 117.244C110.434 116.767 110.958 116.256 111.917 116.256C112.842 116.256 113.298 116.746 113.298 117.585V117.619C113.298 118.105 112.804 118.062 111.61 118.216C110.396 118.374 109.071 118.642 109.071 120.142C109.071 121.42 110.059 122.153 111.304 122.153ZM111.457 121.25C110.656 121.25 110.076 120.892 110.076 120.193C110.076 119.426 110.775 119.188 111.559 119.085C111.985 119.034 113.127 118.915 113.298 118.71V119.631C113.298 120.449 112.65 121.25 111.457 121.25ZM117.145 118.062C117.145 116.92 117.852 116.273 118.815 116.273C119.749 116.273 120.315 116.882 120.315 117.909V122H121.321V117.841C121.321 116.17 120.43 115.369 119.105 115.369C118.116 115.369 117.503 115.812 117.196 116.477H117.111V115.455H116.139V122H117.145V118.062ZM127.284 119.324C127.284 120.551 126.346 121.114 125.596 121.114C124.761 121.114 124.164 120.5 124.164 119.545V115.455H123.159V119.614C123.159 121.284 124.045 122.085 125.272 122.085C126.261 122.085 126.909 121.557 127.216 120.892H127.284V122H128.289V115.455H127.284V119.324ZM132.058 122.153C133.2 122.153 133.796 121.54 134.001 121.114H134.052V122H135.058V117.688C135.058 115.608 133.472 115.369 132.637 115.369C131.648 115.369 130.523 115.71 130.012 116.903L130.967 117.244C131.188 116.767 131.712 116.256 132.671 116.256C133.596 116.256 134.052 116.746 134.052 117.585V117.619C134.052 118.105 133.558 118.062 132.364 118.216C131.15 118.374 129.825 118.642 129.825 120.142C129.825 121.42 130.813 122.153 132.058 122.153ZM132.211 121.25C131.41 121.25 130.83 120.892 130.83 120.193C130.83 119.426 131.529 119.188 132.313 119.085C132.739 119.034 133.881 118.915 134.052 118.71V119.631C134.052 120.449 133.404 121.25 132.211 121.25ZM136.893 122H137.899V117.858C137.899 116.972 138.598 116.324 139.552 116.324C139.821 116.324 140.098 116.375 140.166 116.392V115.369C140.051 115.361 139.787 115.352 139.637 115.352C138.853 115.352 138.172 115.795 137.933 116.443H137.865V115.455H136.893V122ZM142.205 124.455C143.113 124.455 143.752 123.973 144.131 122.955L146.918 115.472L145.819 115.455L144.012 120.67H143.944L142.137 115.455H141.046L143.466 122.034L143.279 122.545C142.912 123.543 142.461 123.636 141.728 123.449L141.472 124.335C141.574 124.386 141.864 124.455 142.205 124.455ZM151.607 122H157.112V121.062H153.055V120.994L155.016 118.898C156.516 117.291 156.959 116.541 156.959 115.574C156.959 114.227 155.868 113.153 154.334 113.153C152.804 113.153 151.641 114.193 151.641 115.727H152.646C152.646 114.734 153.29 114.074 154.3 114.074C155.246 114.074 155.97 114.653 155.97 115.574C155.97 116.379 155.497 116.976 154.487 118.08L151.607 121.233V122ZM161.719 122.119C163.645 122.119 164.753 120.487 164.753 117.636C164.753 114.807 163.628 113.153 161.719 113.153C159.81 113.153 158.685 114.807 158.685 117.636C158.685 120.487 159.793 122.119 161.719 122.119ZM161.719 121.182C160.449 121.182 159.707 119.908 159.707 117.636C159.707 115.369 160.457 114.074 161.719 114.074C162.98 114.074 163.73 115.369 163.73 117.636C163.73 119.908 162.989 121.182 161.719 121.182ZM166.372 122H171.878V121.062H167.821V120.994L169.781 118.898C171.281 117.291 171.724 116.541 171.724 115.574C171.724 114.227 170.634 113.153 169.099 113.153C167.57 113.153 166.406 114.193 166.406 115.727H167.412C167.412 114.734 168.055 114.074 169.065 114.074C170.011 114.074 170.736 114.653 170.736 115.574C170.736 116.379 170.263 116.976 169.253 118.08L166.372 121.233V122ZM176.706 113.273H175.649L173.467 114.722V115.795L175.598 114.381H175.649V122H176.706V113.273Z" fill="#718EBF"/>
<path d="M264.923 110.656H265.974V108.539H268.091V107.488H265.974V105.375H264.923V107.488H262.81V108.539H264.923V110.656ZM272.292 113H273.026L273.03 112.121C274.683 112 275.628 111.055 275.628 109.789C275.628 108.348 274.343 107.789 273.327 107.539L273.042 107.465L273.05 104.957C273.78 105.055 274.28 105.461 274.354 106.102H275.519C275.487 104.91 274.503 104.02 273.054 103.902L273.058 103H272.323L272.319 103.91C270.917 104.051 269.89 104.926 269.89 106.187C269.89 107.301 270.687 107.953 271.972 108.301L272.308 108.391L272.3 111.051C271.538 110.957 270.948 110.543 270.886 109.789H269.675C269.749 111.137 270.722 112.004 272.296 112.121L272.292 113ZM273.034 111.051L273.042 108.594C273.835 108.812 274.433 109.102 274.433 109.777C274.433 110.461 273.862 110.941 273.034 111.051ZM272.312 107.27C271.729 107.098 271.089 106.789 271.093 106.117C271.093 105.531 271.558 105.074 272.315 104.961L272.312 107.27ZM276.961 112H282.227V110.965H278.625V110.906L280.215 109.242C281.68 107.762 282.098 107.055 282.098 106.16C282.098 104.875 281.051 103.891 279.543 103.891C278.047 103.891 276.953 104.859 276.953 106.32H278.105C278.102 105.461 278.656 104.898 279.52 104.898C280.332 104.898 280.949 105.398 280.949 106.195C280.949 106.902 280.527 107.41 279.668 108.32L276.961 111.125V112ZM285.242 110.906H284.117L284.078 111.344C283.988 112.402 283.738 113.469 283.633 113.953H284.461C284.648 113.441 285.063 112.27 285.184 111.332L285.242 110.906ZM289.388 112.109C290.997 112.109 292.146 110.973 292.142 109.414C292.146 107.867 291.067 106.742 289.61 106.742C289.017 106.742 288.466 106.969 288.153 107.273H288.106L288.36 105.035H291.755V104H287.356L286.907 108.031L288.013 108.195C288.313 107.926 288.853 107.742 289.337 107.742C290.286 107.75 290.974 108.461 290.974 109.437C290.974 110.398 290.306 111.094 289.388 111.094C288.614 111.094 288.001 110.602 287.938 109.914H286.767C286.813 111.187 287.919 112.109 289.388 112.109ZM296.354 112.133C298.201 112.133 299.283 110.625 299.283 108.004C299.283 105.402 298.186 103.891 296.354 103.891C294.518 103.891 293.424 105.398 293.42 108.004C293.42 110.621 294.502 112.129 296.354 112.133ZM296.354 111.09C295.271 111.09 294.619 110.004 294.619 108.004C294.623 106.012 295.275 104.914 296.354 104.914C297.428 104.914 298.084 106.012 298.084 108.004C298.084 110.004 297.432 111.09 296.354 111.09ZM303.454 112.133C305.302 112.133 306.384 110.625 306.384 108.004C306.384 105.402 305.286 103.891 303.454 103.891C301.618 103.891 300.524 105.398 300.521 108.004C300.521 110.621 301.603 112.129 303.454 112.133ZM303.454 111.09C302.372 111.09 301.72 110.004 301.72 108.004C301.724 106.012 302.376 104.914 303.454 104.914C304.528 104.914 305.185 106.012 305.185 108.004C305.185 110.004 304.532 111.09 303.454 111.09Z" fill="#41D4A8"/>
<circle cx="43" cy="107" r="25" fill="#E7EDFF"/>
<path d="M49.425 102.988C49.4151 101.894 48.9744 100.849 48.1985 100.079C47.4227 99.3095 46.3743 98.8767 45.2812 98.8751H39.25C39.1002 98.8731 38.9547 98.9251 38.8399 99.0214C38.7252 99.1178 38.6489 99.2522 38.625 99.4001L36.4875 112.806C36.4741 112.895 36.4801 112.986 36.5049 113.072C36.5297 113.158 36.5728 113.238 36.6312 113.306C36.6893 113.376 36.7619 113.432 36.8439 113.471C36.926 113.51 37.0155 113.531 37.1062 113.531H39.6875L39.55 114.4C39.5354 114.49 39.5407 114.582 39.5655 114.67C39.5903 114.758 39.634 114.839 39.6935 114.908C39.7531 114.977 39.8271 115.032 39.9102 115.07C39.9934 115.107 40.0838 115.126 40.175 115.125H43.0812C43.2301 115.127 43.3749 115.076 43.4895 114.981C43.6041 114.886 43.6809 114.753 43.7062 114.606L44.3312 110.788H46.3C47.5322 110.783 48.7124 110.29 49.5826 109.418C50.4527 108.545 50.9421 107.364 50.9437 106.131V105.956C50.9431 105.377 50.8051 104.805 50.5411 104.289C50.2772 103.773 49.8947 103.327 49.425 102.988ZM39.7812 100.125H45.2812C45.937 100.127 46.5726 100.351 47.0846 100.761C47.5965 101.171 47.9544 101.742 48.1 102.381C47.8296 102.318 47.5527 102.286 47.275 102.288H42.0625C41.9127 102.286 41.7672 102.338 41.6524 102.434C41.5377 102.53 41.4614 102.665 41.4375 102.813L41.0687 105.125C41.0422 105.291 41.0826 105.46 41.1811 105.596C41.2795 105.732 41.428 105.824 41.5937 105.85C41.7595 105.877 41.929 105.836 42.065 105.738C42.2009 105.639 42.2922 105.491 42.3187 105.325L42.6062 103.525H47.2875C47.5871 103.527 47.8838 103.584 48.1625 103.694C48.0437 104.672 47.5716 105.574 46.835 106.228C46.0985 106.883 45.1481 107.247 44.1625 107.25H41.2625C41.1136 107.248 40.9688 107.299 40.8542 107.394C40.7396 107.489 40.6628 107.622 40.6375 107.769L39.875 112.281H37.8375L39.7812 100.125ZM49.6937 106.131C49.6921 107.032 49.3344 107.896 48.6987 108.534C48.0629 109.172 47.2007 109.533 46.3 109.538H43.8C43.6511 109.535 43.5063 109.586 43.3917 109.682C43.2771 109.777 43.2003 109.91 43.175 110.056L42.55 113.875H40.9L41.0375 113.006L41.7875 108.513H44.15C45.3168 108.509 46.4497 108.12 47.3721 107.405C48.2946 106.691 48.9548 105.691 49.25 104.563C49.5401 104.969 49.6953 105.457 49.6937 105.956V106.131Z" fill="#396AFF"/>
<path d="M89.076 154.818V162.037C89.071 163.21 88.5241 163.837 87.5497 163.837C86.6499 163.837 86.0234 163.3 86.0185 162.455H84.4922C84.4922 164.175 85.7848 165.139 87.5099 165.139C89.3793 165.139 90.6023 163.996 90.6072 162.037V154.818H89.076ZM96.0151 165.154C97.6806 165.154 98.8588 164.334 99.1969 163.091L97.79 162.837C97.5215 163.558 96.8752 163.926 96.03 163.926C94.7573 163.926 93.9022 163.101 93.8624 161.629H99.2914V161.102C99.2914 158.343 97.6408 157.264 95.9107 157.264C93.7828 157.264 92.3809 158.885 92.3809 161.232C92.3809 163.603 93.763 165.154 96.0151 165.154ZM93.8674 160.516C93.927 159.432 94.7125 158.492 95.9206 158.492C97.074 158.492 97.8297 159.347 97.8347 160.516H93.8674ZM100.941 165H102.427V160.292C102.427 159.263 103.148 158.547 103.993 158.547C104.819 158.547 105.39 159.094 105.39 159.924V165H106.872V160.133C106.872 159.213 107.434 158.547 108.403 158.547C109.189 158.547 109.835 158.984 109.835 160.018V165H111.321V159.879C111.321 158.134 110.347 157.264 108.965 157.264C107.866 157.264 107.041 157.791 106.673 158.607H106.593C106.26 157.771 105.559 157.264 104.54 157.264C103.531 157.264 102.78 157.766 102.462 158.607H102.368V157.364H100.941V165ZM113.314 165H114.8V157.364H113.314V165ZM114.064 156.185C114.577 156.185 115.004 155.788 115.004 155.3C115.004 154.813 114.577 154.411 114.064 154.411C113.547 154.411 113.125 154.813 113.125 155.3C113.125 155.788 113.547 156.185 114.064 156.185ZM122.618 165H124.169L126.312 157.374H126.392L128.534 165H130.08L132.909 154.818H131.289L129.31 162.708H129.215L127.152 154.818H125.551L123.488 162.703H123.394L121.41 154.818H119.794L122.618 165ZM134.191 165H135.677V157.364H134.191V165ZM134.941 156.185C135.453 156.185 135.881 155.788 135.881 155.3C135.881 154.813 135.453 154.411 134.941 154.411C134.424 154.411 134.002 154.813 134.002 155.3C134.002 155.788 134.424 156.185 134.941 156.185ZM139.164 154.818H137.677V165H139.164V154.818ZM146.886 159.228C146.577 158.04 145.648 157.264 143.997 157.264C142.272 157.264 141.049 158.174 141.049 159.526C141.049 160.61 141.705 161.331 143.137 161.649L144.43 161.933C145.165 162.097 145.509 162.425 145.509 162.902C145.509 163.494 144.877 163.956 143.903 163.956C143.013 163.956 142.441 163.573 142.262 162.822L140.825 163.041C141.074 164.393 142.197 165.154 143.913 165.154C145.757 165.154 147.035 164.175 147.035 162.793C147.035 161.714 146.349 161.048 144.947 160.724L143.734 160.446C142.893 160.247 142.531 159.964 142.536 159.447C142.531 158.86 143.167 158.442 144.012 158.442C144.937 158.442 145.364 158.955 145.538 159.467L146.886 159.228ZM151.886 165.154C154.039 165.154 155.445 163.578 155.445 161.217C155.445 158.84 154.039 157.264 151.886 157.264C149.733 157.264 148.326 158.84 148.326 161.217C148.326 163.578 149.733 165.154 151.886 165.154ZM151.891 163.906C150.484 163.906 149.828 162.678 149.828 161.212C149.828 159.75 150.484 158.507 151.891 158.507C153.288 158.507 153.944 159.75 153.944 161.212C153.944 162.678 153.288 163.906 151.891 163.906ZM158.591 160.466C158.591 159.248 159.337 158.552 160.371 158.552C161.38 158.552 161.992 159.213 161.992 160.322V165H163.478V160.143C163.478 158.254 162.439 157.264 160.878 157.264C159.73 157.264 158.979 157.796 158.626 158.607H158.532V157.364H157.105V165H158.591V160.466Z" fill="#232323"/>
<path d="M84.9034 184H90.4091V183.062H86.3523V182.994L88.3125 180.898C89.8125 179.291 90.2557 178.541 90.2557 177.574C90.2557 176.227 89.1648 175.153 87.6307 175.153C86.1009 175.153 84.9375 176.193 84.9375 177.727H85.9432C85.9432 176.734 86.5866 176.074 87.5966 176.074C88.5426 176.074 89.267 176.653 89.267 177.574C89.267 178.379 88.794 178.976 87.7841 180.08L84.9034 183.233V184ZM95.2372 175.273H94.1804L91.9986 176.722V177.795L94.1293 176.381H94.1804V184H95.2372V175.273ZM104.616 175.273V181.511C104.616 182.598 104.097 183.182 103.185 183.182C102.354 183.182 101.753 182.696 101.753 181.955H100.713C100.713 183.297 101.753 184.119 103.185 184.119C104.702 184.119 105.673 183.186 105.673 181.511V175.273H104.616ZM109.581 184.153C110.723 184.153 111.32 183.54 111.524 183.114H111.575V184H112.581V179.688C112.581 177.608 110.996 177.369 110.161 177.369C109.172 177.369 108.047 177.71 107.536 178.903L108.49 179.244C108.712 178.767 109.236 178.256 110.195 178.256C111.119 178.256 111.575 178.746 111.575 179.585V179.619C111.575 180.105 111.081 180.062 109.888 180.216C108.673 180.374 107.348 180.642 107.348 182.142C107.348 183.42 108.337 184.153 109.581 184.153ZM109.734 183.25C108.933 183.25 108.354 182.892 108.354 182.193C108.354 181.426 109.053 181.188 109.837 181.085C110.263 181.034 111.405 180.915 111.575 180.71V181.631C111.575 182.449 110.928 183.25 109.734 183.25ZM115.422 180.062C115.422 178.92 116.13 178.273 117.093 178.273C118.026 178.273 118.593 178.882 118.593 179.909V184H119.598V179.841C119.598 178.17 118.708 177.369 117.382 177.369C116.394 177.369 115.78 177.812 115.473 178.477H115.388V177.455H114.417V184H115.422V180.062ZM125.561 181.324C125.561 182.551 124.624 183.114 123.874 183.114C123.038 183.114 122.442 182.5 122.442 181.545V177.455H121.436V181.614C121.436 183.284 122.322 184.085 123.55 184.085C124.538 184.085 125.186 183.557 125.493 182.892H125.561V184H126.567V177.455H125.561V181.324ZM130.335 184.153C131.477 184.153 132.074 183.54 132.278 183.114H132.329V184H133.335V179.688C133.335 177.608 131.75 177.369 130.914 177.369C129.926 177.369 128.801 177.71 128.289 178.903L129.244 179.244C129.466 178.767 129.99 178.256 130.949 178.256C131.873 178.256 132.329 178.746 132.329 179.585V179.619C132.329 180.105 131.835 180.062 130.642 180.216C129.427 180.374 128.102 180.642 128.102 182.142C128.102 183.42 129.091 184.153 130.335 184.153ZM130.488 183.25C129.687 183.25 129.108 182.892 129.108 182.193C129.108 181.426 129.806 181.188 130.591 181.085C131.017 181.034 132.159 180.915 132.329 180.71V181.631C132.329 182.449 131.681 183.25 130.488 183.25ZM135.17 184H136.176V179.858C136.176 178.972 136.875 178.324 137.83 178.324C138.098 178.324 138.375 178.375 138.443 178.392V177.369C138.328 177.361 138.064 177.352 137.915 177.352C137.131 177.352 136.449 177.795 136.21 178.443H136.142V177.455H135.17V184ZM140.482 186.455C141.39 186.455 142.029 185.973 142.408 184.955L145.195 177.472L144.096 177.455L142.289 182.67H142.221L140.414 177.455H139.323L141.744 184.034L141.556 184.545C141.19 185.543 140.738 185.636 140.005 185.449L139.749 186.335C139.852 186.386 140.141 186.455 140.482 186.455ZM149.884 184H155.39V183.062H151.333V182.994L153.293 180.898C154.793 179.291 155.236 178.541 155.236 177.574C155.236 176.227 154.145 175.153 152.611 175.153C151.081 175.153 149.918 176.193 149.918 177.727H150.924C150.924 176.734 151.567 176.074 152.577 176.074C153.523 176.074 154.248 176.653 154.248 177.574C154.248 178.379 153.775 178.976 152.765 180.08L149.884 183.233V184ZM159.996 184.119C161.922 184.119 163.03 182.487 163.03 179.636C163.03 176.807 161.905 175.153 159.996 175.153C158.087 175.153 156.962 176.807 156.962 179.636C156.962 182.487 158.07 184.119 159.996 184.119ZM159.996 183.182C158.726 183.182 157.985 181.908 157.985 179.636C157.985 177.369 158.735 176.074 159.996 176.074C161.257 176.074 162.007 177.369 162.007 179.636C162.007 181.908 161.266 183.182 159.996 183.182ZM164.65 184H170.155V183.062H166.098V182.994L168.059 180.898C169.559 179.291 170.002 178.541 170.002 177.574C170.002 176.227 168.911 175.153 167.377 175.153C165.847 175.153 164.684 176.193 164.684 177.727H165.689C165.689 176.734 166.333 176.074 167.343 176.074C168.289 176.074 169.013 176.653 169.013 177.574C169.013 178.379 168.54 178.976 167.53 180.08L164.65 183.233V184ZM174.983 175.273H173.926L171.745 176.722V177.795L173.875 176.381H173.926V184H174.983V175.273Z" fill="#718EBF"/>
<path d="M264.622 172.656H265.673V170.539H267.79V169.488H265.673V167.375H264.622V169.488H262.509V170.539H264.622V172.656ZM271.991 175H272.726L272.729 174.121C274.382 174 275.327 173.055 275.327 171.789C275.327 170.348 274.042 169.789 273.026 169.539L272.741 169.465L272.749 166.957C273.479 167.055 273.979 167.461 274.054 168.102H275.218C275.187 166.91 274.202 166.02 272.753 165.902L272.757 165H272.022L272.019 165.91C270.616 166.051 269.589 166.926 269.589 168.187C269.589 169.301 270.386 169.953 271.671 170.301L272.007 170.391L271.999 173.051C271.237 172.957 270.647 172.543 270.585 171.789H269.374C269.448 173.137 270.421 174.004 271.995 174.121L271.991 175ZM272.733 173.051L272.741 170.594C273.534 170.812 274.132 171.102 274.132 171.777C274.132 172.461 273.562 172.941 272.733 173.051ZM272.011 169.27C271.429 169.098 270.788 168.789 270.792 168.117C270.792 167.531 271.257 167.074 272.015 166.961L272.011 169.27ZM279.301 174.109C280.91 174.109 282.059 172.973 282.055 171.414C282.059 169.867 280.98 168.742 279.523 168.742C278.93 168.742 278.379 168.969 278.066 169.273H278.02L278.273 167.035H281.668V166H277.27L276.82 170.031L277.926 170.195C278.227 169.926 278.766 169.742 279.25 169.742C280.199 169.75 280.887 170.461 280.887 171.437C280.887 172.398 280.219 173.094 279.301 173.094C278.527 173.094 277.914 172.602 277.852 171.914H276.68C276.727 173.187 277.832 174.109 279.301 174.109ZM284.737 172.906H283.612L283.573 173.344C283.483 174.402 283.233 175.469 283.128 175.953H283.956C284.144 175.441 284.558 174.27 284.679 173.332L284.737 172.906ZM286.203 172.438H289.996V174H291.148V172.438H292.207V171.414H291.148V166H289.66L286.203 171.461V172.438ZM290.004 171.414H287.469V171.352L289.941 167.437H290.004V171.414ZM296.354 174.133C298.201 174.133 299.283 172.625 299.283 170.004C299.283 167.402 298.186 165.891 296.354 165.891C294.518 165.891 293.424 167.398 293.42 170.004C293.42 172.621 294.502 174.129 296.354 174.133ZM296.354 173.09C295.271 173.09 294.619 172.004 294.619 170.004C294.623 168.012 295.275 166.914 296.354 166.914C297.428 166.914 298.084 168.012 298.084 170.004C298.084 172.004 297.432 173.09 296.354 173.09ZM303.454 174.133C305.302 174.133 306.384 172.625 306.384 170.004C306.384 167.402 305.286 165.891 303.454 165.891C301.618 165.891 300.524 167.398 300.521 170.004C300.521 172.621 301.603 174.129 303.454 174.133ZM303.454 173.09C302.372 173.09 301.72 172.004 301.72 170.004C301.724 168.012 302.376 166.914 303.454 166.914C304.528 166.914 305.185 168.012 305.185 170.004C305.185 172.004 304.532 173.09 303.454 173.09Z" fill="#41D4A8"/>
<circle cx="43" cy="169" r="25" fill="#DCFAF8"/>
<path d="M43.0001 167.128C43.3545 167.128 43.6438 167.417 43.6438 167.771C43.6438 168.094 43.9067 168.357 44.23 168.357C44.5526 168.357 44.8154 168.094 44.8154 167.771C44.8154 166.977 44.2979 166.306 43.5855 166.061V165.729C43.5855 165.407 43.3235 165.143 43.0001 165.143C42.676 165.143 42.414 165.407 42.414 165.729V166.061C41.7016 166.306 41.1856 166.977 41.1856 167.771C41.1856 168.773 41.9991 169.586 43.0001 169.586C43.3545 169.586 43.6438 169.876 43.6438 170.23C43.6438 170.585 43.3545 170.874 43.0001 170.874C42.6458 170.874 42.3571 170.585 42.3571 170.23C42.3571 169.907 42.0943 169.644 41.771 169.644C41.4469 169.644 41.1856 169.907 41.1856 170.23C41.1856 171.024 41.7016 171.694 42.414 171.939V172.271C42.414 172.595 42.676 172.858 43.0001 172.858C43.3235 172.858 43.5855 172.595 43.5855 172.271V171.939C44.2979 171.694 44.8154 171.024 44.8154 170.23C44.8154 169.229 44.0011 168.415 43.0001 168.415C42.6458 168.415 42.3571 168.126 42.3571 167.771C42.3571 167.417 42.6458 167.128 43.0001 167.128ZM47.9086 172.254C48.1957 172.405 48.5494 172.295 48.7 172.01C49.1872 171.089 49.4441 170.049 49.4441 169C49.4441 165.448 46.5525 162.557 43.0001 162.557C39.447 162.557 36.5561 165.448 36.5561 169C36.5561 172.553 39.447 175.444 43.0001 175.444C44.0329 175.444 45.059 175.195 45.9678 174.721C46.255 174.573 46.3664 174.218 46.2173 173.932C46.0682 173.646 45.7146 173.532 45.4267 173.682C44.6744 174.075 43.8572 174.273 43.0001 174.273C40.093 174.273 37.727 171.908 37.727 169C37.727 166.094 40.093 163.728 43.0001 163.728C45.9072 163.728 48.2733 166.094 48.2733 169C48.2733 169.859 48.0621 170.71 47.665 171.461C47.5129 171.748 47.6221 172.102 47.9086 172.254ZM43.0001 160.212C41.3029 160.212 39.6552 160.698 38.2356 161.616C37.9632 161.791 37.8857 162.154 38.0614 162.426C38.2378 162.697 38.5988 162.774 38.872 162.6C40.1004 161.805 41.5296 161.385 43.0001 161.385C47.1999 161.385 50.6156 164.801 50.6156 169C50.6156 173.2 47.1999 176.617 43.0001 176.617C38.8004 176.617 35.3838 173.2 35.3838 169C35.3838 167.544 35.7965 166.127 36.5783 164.905C36.7525 164.632 36.6728 164.27 36.3996 164.095C36.1272 163.921 35.7648 164.001 35.5913 164.273C34.6892 165.684 34.2123 167.32 34.2123 169C34.2123 173.847 38.1537 177.788 43.0001 177.788C47.8458 177.788 51.788 173.847 51.788 169C51.788 164.155 47.8458 160.212 43.0001 160.212Z" fill="#16DBCC"/>
</svg>
